<svg xmlns="http://www.w3.org/2000/svg" xmlns:xlink="http://www.w3.org/1999/xlink" width="256.932" height="254.755" viewBox="0 0 256.932 254.755"><defs><linearGradient id="a" y1="0.5" x2="1" y2="0.5" gradientUnits="objectBoundingBox"><stop offset="0" stop-color="#565656"/><stop offset="0.191" stop-color="#595959"/><stop offset="0.347" stop-color="#616263"/><stop offset="0.491" stop-color="#707274"/><stop offset="0.627" stop-color="#85898c"/><stop offset="0.758" stop-color="#a1a6ab"/><stop offset="0.883" stop-color="#c1c9d1"/><stop offset="1" stop-color="#e7f1fb"/></linearGradient></defs><g transform="translate(-255.45 -61.27)"><g transform="translate(255.45 61.27)"><g transform="translate(0 8.961)"><path d="M486.4,313.035H277.874a22.426,22.426,0,0,1-22.424-22.424V89.664A22.426,22.426,0,0,1,277.874,67.24H486.415a22.426,22.426,0,0,1,22.424,22.424V290.611A22.449,22.449,0,0,1,486.4,313.035Z" transform="translate(-255.45 -67.24)" fill="url(#a)"/></g><path d="M488.775,303.657H280.234a22.426,22.426,0,0,1-22.424-22.424V83.694A22.426,22.426,0,0,1,280.234,61.27H488.775A22.426,22.426,0,0,1,511.2,83.694V281.233A22.426,22.426,0,0,1,488.775,303.657Z" transform="translate(-254.268 -61.27)" fill="#bfbfbf"/><g transform="translate(89.696 200.286)"><path d="M317.912,196.63v25.216h-2.7V196.63Zm-.991,0h8.225v3.752h-8.225Zm0,9.861h7.76v3.677h-7.76Zm0,11.6h8.225v3.752h-8.225Z" transform="translate(-315.21 -193.748)" fill="#fff"/><path d="M326.452,194.71v28.1H323.93v-28.1Z" transform="translate(-310.842 -194.71)" fill="#fff"/><path d="M329.807,218.36a6.907,6.907,0,0,1-1.921-3.032,13.788,13.788,0,0,1-.675-4.533,13.6,13.6,0,0,1,.69-4.578,6.818,6.818,0,0,1,1.936-3,4.445,4.445,0,0,1,2.957-1.066,4.271,4.271,0,0,1,2.882,1.006,6.432,6.432,0,0,1,1.831,2.9,14.469,14.469,0,0,1,.645,4.563c0,.2,0,.39-.015.615s-.015.375-.03.465H328.7v-2.672h7.265l-.765,1.651c.045-.15.09-.345.15-.6a2.716,2.716,0,0,0,.075-.63,7.135,7.135,0,0,0-.345-2.311,3.677,3.677,0,0,0-.931-1.516,1.977,1.977,0,0,0-1.381-.54,2.277,2.277,0,0,0-1.636.645,4,4,0,0,0-1.021,1.876,12.177,12.177,0,0,0-.375,3.032,11.748,11.748,0,0,0,.345,3.047,4.072,4.072,0,0,0,1.036,1.891,2.3,2.3,0,0,0,1.666.645,2.67,2.67,0,0,0,1.786-.645,4.721,4.721,0,0,0,1.276-1.981L338,214.953a7.8,7.8,0,0,1-2.161,3.347,4.769,4.769,0,0,1-3.2,1.111A4.047,4.047,0,0,1,329.807,218.36Z" transform="translate(-309.199 -190.983)" fill="#fff"/><path d="M338.522,213.537a4.76,4.76,0,0,0,1.2,1.861,2.5,2.5,0,0,0,1.681.69,3.179,3.179,0,0,0,1.471-.36,3.91,3.91,0,0,0,1.231-1.006,4.525,4.525,0,0,0,.8-1.441v4.293a3.93,3.93,0,0,1-1.516,1.366,4.58,4.58,0,0,1-5.073-.585,7.466,7.466,0,0,1-2.071-3.062,12.289,12.289,0,0,1-.75-4.488,12.525,12.525,0,0,1,.75-4.5,7.511,7.511,0,0,1,2.071-3.047,4.47,4.47,0,0,1,2.972-1.1,4.352,4.352,0,0,1,2.1.51,4.039,4.039,0,0,1,1.516,1.366v4.293a3.759,3.759,0,0,0-.811-1.456,4.13,4.13,0,0,0-1.246-.991,3.1,3.1,0,0,0-1.441-.36,2.4,2.4,0,0,0-1.681.69,4.608,4.608,0,0,0-1.2,1.876,7.73,7.73,0,0,0-.435,2.732A7.271,7.271,0,0,0,338.522,213.537Z" transform="translate(-305.051 -190.978)" fill="#fff"/><path d="M348.689,204.314v3.422H342.61v-3.422Zm-1.8-5.764v22.334H344.4V198.55Z" transform="translate(-301.484 -192.786)" fill="#fff"/><path d="M348.021,206.293a7.487,7.487,0,0,1,2.056-3.047,4.46,4.46,0,0,1,2.957-1.1,4.394,4.394,0,0,1,2.942,1.1,7.532,7.532,0,0,1,2.056,3.047,13.582,13.582,0,0,1,0,8.991,7.59,7.59,0,0,1-2.056,3.062,4.394,4.394,0,0,1-2.942,1.1,4.46,4.46,0,0,1-2.957-1.1,7.3,7.3,0,0,1-2.056-3.062,12.289,12.289,0,0,1-.75-4.488A11.9,11.9,0,0,1,348.021,206.293Zm2.236,7.22a4.5,4.5,0,0,0,1.141,1.831,2.3,2.3,0,0,0,1.636.66,2.416,2.416,0,0,0,1.621-.66,4.468,4.468,0,0,0,1.156-1.831,7.887,7.887,0,0,0,.42-2.717,7.976,7.976,0,0,0-.42-2.732,4.186,4.186,0,0,0-1.156-1.831,2.377,2.377,0,0,0-3.257,0,4.5,4.5,0,0,0-1.141,1.831,8.1,8.1,0,0,0-.42,2.732A8.748,8.748,0,0,0,350.257,213.512Z" transform="translate(-299.15 -190.983)" fill="#fff"/><path d="M359.032,219.081H356.54V202.51h2.492Zm2.537-13.088a1.356,1.356,0,0,0-1.786.3,3.171,3.171,0,0,0-.57,1.381,10.429,10.429,0,0,0-.18,2.071l-.841-.75a11.9,11.9,0,0,1,.48-3.512,7.083,7.083,0,0,1,1.231-2.432,2.125,2.125,0,0,1,1.576-.9,2.321,2.321,0,0,1,1.1.27,2.015,2.015,0,0,1,.856.961l-1.216,3.272A3.011,3.011,0,0,0,361.568,205.992Z" transform="translate(-294.506 -190.983)" fill="#fff"/><path d="M364.442,215.358a1.919,1.919,0,0,0,.705.886,1.853,1.853,0,0,0,1.036.285,2.212,2.212,0,0,0,1.366-.465,3.406,3.406,0,0,0,1.006-1.381,5.534,5.534,0,0,0,.39-2.146l.375,2.161a5.252,5.252,0,0,1-.6,2.642,4.126,4.126,0,0,1-1.486,1.591,3.618,3.618,0,0,1-1.831.525,3.178,3.178,0,0,1-1.861-.615,4.192,4.192,0,0,1-1.381-1.8,7.223,7.223,0,0,1-.51-2.882,6.148,6.148,0,0,1,1.1-3.842,3.686,3.686,0,0,1,3.092-1.426,4.308,4.308,0,0,1,1.846.36,4.924,4.924,0,0,1,1.291.841,3.447,3.447,0,0,1,.72.886v1.981a4.689,4.689,0,0,0-1.531-1.156,4.236,4.236,0,0,0-1.726-.36,2.431,2.431,0,0,0-1.276.3,1.905,1.905,0,0,0-.735.841,4.014,4.014,0,0,0,.015,2.777ZM362.37,204.1a9.933,9.933,0,0,1,1.876-1.336,5.26,5.26,0,0,1,2.642-.645,4.466,4.466,0,0,1,2.341.615,4.264,4.264,0,0,1,1.591,1.741,6,6,0,0,1,.585,2.792v11.812h-2.462V208.019a3.869,3.869,0,0,0-.18-1.291,2.22,2.22,0,0,0-.48-.826,1.759,1.759,0,0,0-.72-.465,3,3,0,0,0-.916-.15,3.746,3.746,0,0,0-1.411.27,4.618,4.618,0,0,0-1.141.645,6.823,6.823,0,0,0-.705.63Z" transform="translate(-291.946 -190.998)" fill="#fff"/><path d="M372.612,194.71v28.1H370.09v-28.1Z" transform="translate(-287.718 -194.71)" fill="#fff"/></g></g><path d="M423.153,108.253v-1.876a6.518,6.518,0,0,0-6.514-6.514h-4.368A20.313,20.313,0,0,1,400.8,95.615L374.327,72.936a7.863,7.863,0,0,0-9.906,0L337.944,95.615a20.422,20.422,0,0,1-11.467,4.248h-4.368a6.531,6.531,0,0,0-6.529,6.514v1.876a16.114,16.114,0,0,1-4.953,10.762l-14.544,12.458a16.114,16.114,0,0,0-4.953,10.762v94.529a6.518,6.518,0,0,0,6.514,6.514H441.059a6.508,6.508,0,0,0,6.514-6.514V142.235a16.114,16.114,0,0,0-4.953-10.762l-14.544-12.458A16.218,16.218,0,0,1,423.153,108.253ZM333.1,194.423,305.539,221.98c-2.552,2.552-4.608,1.7-4.608-1.906V159.556c0-3.6,2.056-4.458,4.608-1.906L333.1,185.207A6.5,6.5,0,0,1,333.1,194.423Zm20.383-.03h31.5a18.211,18.211,0,0,1,11.152,4.593l30.139,29.929c2.552,2.537,1.711,4.593-1.891,4.593h-110c-3.6,0-4.458-2.056-1.906-4.608l29.9-29.9A17.914,17.914,0,0,1,353.479,194.393Zm84.353-34.882v60.578c0,3.6-2.071,4.458-4.623,1.921L405.4,194.393a6.468,6.468,0,0,1,0-9.186l27.812-27.632C435.761,155.053,437.832,155.908,437.832,159.511Zm-5.178-15.16-4.863,4.833c-2.552,2.537-4.623,1.681-4.623-1.921V134.385c0-3.6,2.236-4.638,4.983-2.311l4.143,3.5A5.848,5.848,0,0,1,432.654,144.351Zm-58.3-57.621,10.6,8.931c2.747,2.326,2.071,4.2-1.531,4.2h-28.1c-3.6,0-4.293-1.876-1.531-4.2l10.6-8.931A7.988,7.988,0,0,1,374.357,86.73Zm39.025,29.434v40.811a17.966,17.966,0,0,1-4.623,11.107l-12.008,11.932a18.17,18.17,0,0,1-11.137,4.593H352.864A18.075,18.075,0,0,1,341.742,180L330,168.261a18.065,18.065,0,0,1-4.608-11.137V116.148a6.508,6.508,0,0,1,6.514-6.514h74.972A6.528,6.528,0,0,1,413.382,116.163Zm-102.394,33.1-4.908-4.893a5.871,5.871,0,0,1,.375-8.811l4.143-3.5c2.747-2.326,4.983-1.276,4.983,2.311v12.983C315.6,150.955,313.539,151.811,310.987,149.259Zm84.458-24.946c0,2.7-2.912,4.893-6.514,4.893H353.074c-3.6,0-6.514-2.191-6.514-4.893s2.912-4.893,6.514-4.893h35.858C392.534,119.42,395.446,121.612,395.446,124.313Zm0,19.557c0,2.7-2.912,4.893-6.514,4.893H353.074c-3.6,0-6.514-2.191-6.514-4.893s2.912-4.893,6.514-4.893h35.858C392.534,138.978,395.446,141.169,395.446,143.871Zm-29.328,19.542c0,2.7-2.927,4.893-6.514,4.893h-6.514c-3.6,0-6.514-2.191-6.514-4.893s2.912-4.893,6.514-4.893H359.6C363.205,158.535,366.117,160.726,366.117,163.413Z" transform="translate(17.874 4.964)" fill="#fff"/></g></svg>