<svg xmlns="http://www.w3.org/2000/svg" xmlns:xlink="http://www.w3.org/1999/xlink" width="254" height="251.848" viewBox="0 0 254 251.848"><defs><linearGradient id="a" y1="0.5" x2="1" y2="0.5" gradientUnits="objectBoundingBox"><stop offset="0" stop-color="#565656"/><stop offset="0.191" stop-color="#595959"/><stop offset="0.347" stop-color="#616263"/><stop offset="0.491" stop-color="#707274"/><stop offset="0.627" stop-color="#85898c"/><stop offset="0.758" stop-color="#a1a6ab"/><stop offset="0.883" stop-color="#c1c9d1"/><stop offset="1" stop-color="#e7f1fb"/></linearGradient></defs><g transform="translate(-255.45 -61.27)"><g transform="translate(255.45 61.27)"><g transform="translate(0 8.858)"><path d="M483.765,310.23H277.618a22.17,22.17,0,0,1-22.168-22.168V89.408A22.17,22.17,0,0,1,277.618,67.24H483.78a22.17,22.17,0,0,1,22.168,22.168V288.062A22.193,22.193,0,0,1,483.765,310.23Z" transform="translate(-255.45 -67.24)" fill="url(#a)"/></g><path d="M486.14,300.892H279.978a22.17,22.17,0,0,1-22.168-22.168V83.438A22.17,22.17,0,0,1,279.978,61.27H486.14a22.17,22.17,0,0,1,22.168,22.168V278.723A22.17,22.17,0,0,1,486.14,300.892Z" transform="translate(-254.308 -61.27)" fill="#bfbfbf"/><g transform="translate(84.785 200.449)"><path d="M315.721,216.184a5.661,5.661,0,0,0,1.35,1.677,2.538,2.538,0,0,0,1.662.594,2.15,2.15,0,0,0,1.8-.92,3.9,3.9,0,0,0,.7-2.389,4.992,4.992,0,0,0-.43-2.226,4.118,4.118,0,0,0-1.2-1.424,16.876,16.876,0,0,0-1.781-1.157,9.652,9.652,0,0,1-1.335-.875,7.8,7.8,0,0,1-1.41-1.395,6.964,6.964,0,0,1-1.1-2.062,8.764,8.764,0,0,1-.43-2.968,8.572,8.572,0,0,1,.668-3.5,5.63,5.63,0,0,1,1.81-2.344,4.3,4.3,0,0,1,2.6-.831,4.048,4.048,0,0,1,2.478.786,6.574,6.574,0,0,1,1.781,1.988,11.668,11.668,0,0,1,1.143,2.522l-2.211,1.929a9.023,9.023,0,0,0-.757-1.721,4.4,4.4,0,0,0-1.068-1.276,2.161,2.161,0,0,0-1.41-.475,1.851,1.851,0,0,0-1.662.8,3.291,3.291,0,0,0-.534,1.87,3.629,3.629,0,0,0,.386,1.721,4.581,4.581,0,0,0,1.187,1.439,13.4,13.4,0,0,0,2.092,1.395,10.059,10.059,0,0,1,1.439.994,6.635,6.635,0,0,1,1.321,1.513,7.736,7.736,0,0,1,.95,2.122,10.09,10.09,0,0,1,.356,2.849,10.718,10.718,0,0,1-.43,3.131,7.188,7.188,0,0,1-1.2,2.33,5.665,5.665,0,0,1-1.721,1.454,4.186,4.186,0,0,1-1.988.519,4.474,4.474,0,0,1-2.641-.875,7.831,7.831,0,0,1-2.107-2.33,14,14,0,0,1-1.424-3.175l2.033-2.166A14.157,14.157,0,0,0,315.721,216.184Z" transform="translate(-312.59 -196.36)" fill="#fff"/><path d="M324.18,215.207a1.9,1.9,0,0,0,.7.875,1.832,1.832,0,0,0,1.024.282,2.187,2.187,0,0,0,1.35-.46,3.367,3.367,0,0,0,.994-1.365,5.469,5.469,0,0,0,.386-2.122l.371,2.137a5.191,5.191,0,0,1-.594,2.612,4.079,4.079,0,0,1-1.469,1.573,3.577,3.577,0,0,1-1.81.519,3.141,3.141,0,0,1-1.84-.608,4.143,4.143,0,0,1-1.365-1.781,7.141,7.141,0,0,1-.5-2.849,6.078,6.078,0,0,1,1.083-3.8,3.644,3.644,0,0,1,3.057-1.41,4.259,4.259,0,0,1,1.825.356,4.867,4.867,0,0,1,1.276.831,3.409,3.409,0,0,1,.712.875v1.959a4.636,4.636,0,0,0-1.513-1.143,4.188,4.188,0,0,0-1.706-.356,2.4,2.4,0,0,0-1.261.3,1.884,1.884,0,0,0-.727.831,3.185,3.185,0,0,0-.237,1.321A3.651,3.651,0,0,0,324.18,215.207Zm-2.048-11.129a9.821,9.821,0,0,1,1.855-1.321,5.2,5.2,0,0,1,2.612-.638,4.415,4.415,0,0,1,2.315.608,4.215,4.215,0,0,1,1.573,1.721,5.937,5.937,0,0,1,.579,2.76v11.678h-2.433V207.951a3.826,3.826,0,0,0-.178-1.276,2.2,2.2,0,0,0-.475-.816,1.738,1.738,0,0,0-.712-.46,2.965,2.965,0,0,0-.905-.148,3.7,3.7,0,0,0-1.395.267,4.565,4.565,0,0,0-1.128.638,6.747,6.747,0,0,0-.7.623Z" transform="translate(-308.318 -193.573)" fill="#fff"/><path d="M336.206,206.171a1.571,1.571,0,0,0-1.5-.92,1.839,1.839,0,0,0-1.217.445,2.987,2.987,0,0,0-.831,1.276,5.52,5.52,0,0,0-.3,1.944v9.971H329.87V202.506h2.493v2.522a5.044,5.044,0,0,1,1.306-2.166,2.747,2.747,0,0,1,1.9-.712,2.993,2.993,0,0,1,2.745,1.692,9.634,9.634,0,0,1,.95,4.644v10.4H336.71v-9.971A6.185,6.185,0,0,0,336.206,206.171Z" transform="translate(-304.23 -193.559)" fill="#fff"/><path d="M338.745,197.093a1.36,1.36,0,0,1,1.1-.683,1.293,1.293,0,0,1,1.113.683,2.971,2.971,0,0,1,.445,1.677,3.058,3.058,0,0,1-.445,1.662,1.31,1.31,0,0,1-1.113.7,1.344,1.344,0,0,1-1.1-.7,2.885,2.885,0,0,1-.475-1.662A2.764,2.764,0,0,1,338.745,197.093Zm2.315,8.191v16.381h-2.433V205.283Z" transform="translate(-300.166 -196.336)" fill="#fff"/><path d="M347.469,204.248v3.383H341.46v-3.383Zm-1.766-5.7v22.079h-2.463V198.55Z" transform="translate(-298.622 -195.3)" fill="#fff"/><path d="M348.79,215.207a1.9,1.9,0,0,0,.7.875,1.832,1.832,0,0,0,1.024.282,2.186,2.186,0,0,0,1.35-.46,3.366,3.366,0,0,0,.994-1.365,5.47,5.47,0,0,0,.386-2.122l.371,2.137a5.192,5.192,0,0,1-.594,2.612,4.079,4.079,0,0,1-1.469,1.573,3.577,3.577,0,0,1-1.81.519,3.141,3.141,0,0,1-1.84-.608,4.143,4.143,0,0,1-1.365-1.781,7.143,7.143,0,0,1-.5-2.849,6.078,6.078,0,0,1,1.083-3.8,3.644,3.644,0,0,1,3.057-1.41,4.26,4.26,0,0,1,1.825.356,4.867,4.867,0,0,1,1.276.831,3.408,3.408,0,0,1,.712.875v1.959a4.635,4.635,0,0,0-1.513-1.143,4.187,4.187,0,0,0-1.706-.356,2.4,2.4,0,0,0-1.261.3,1.884,1.884,0,0,0-.727.831,3.969,3.969,0,0,0,.015,2.745Zm-2.063-11.129a9.821,9.821,0,0,1,1.855-1.321,5.2,5.2,0,0,1,2.612-.638,4.415,4.415,0,0,1,2.315.608,4.215,4.215,0,0,1,1.573,1.721,5.937,5.937,0,0,1,.579,2.76v11.678h-2.433V207.951a3.826,3.826,0,0,0-.178-1.276,2.2,2.2,0,0,0-.475-.816,1.738,1.738,0,0,0-.712-.46,2.966,2.966,0,0,0-.905-.148,3.7,3.7,0,0,0-1.395.267,4.565,4.565,0,0,0-1.128.638,6.741,6.741,0,0,0-.7.623Z" transform="translate(-296.411 -193.573)" fill="#fff"/><path d="M356.943,218.887H354.48V202.506h2.463Zm2.508-12.939a1.34,1.34,0,0,0-1.766.3,3.134,3.134,0,0,0-.564,1.365,10.308,10.308,0,0,0-.178,2.048l-.831-.742a11.762,11.762,0,0,1,.475-3.472,7,7,0,0,1,1.217-2.4,2.1,2.1,0,0,1,1.558-.89,2.3,2.3,0,0,1,1.083.267,1.993,1.993,0,0,1,.846.95l-1.2,3.235A3.347,3.347,0,0,0,359.451,205.949Z" transform="translate(-292.323 -193.559)" fill="#fff"/><path d="M360.625,197.093a1.36,1.36,0,0,1,1.1-.683,1.293,1.293,0,0,1,1.113.683,2.971,2.971,0,0,1,.445,1.677,3.058,3.058,0,0,1-.445,1.662,1.31,1.31,0,0,1-1.113.7,1.344,1.344,0,0,1-1.1-.7,2.885,2.885,0,0,1-.475-1.662A2.98,2.98,0,0,1,360.625,197.093Zm2.315,8.191v16.381h-2.433V205.283Z" transform="translate(-289.58 -196.336)" fill="#fff"/><path d="M364.552,206.245a7.4,7.4,0,0,1,2.033-3.012,4.409,4.409,0,0,1,2.923-1.083,4.344,4.344,0,0,1,2.908,1.083,7.446,7.446,0,0,1,2.033,3.012,13.428,13.428,0,0,1,0,8.888,7.5,7.5,0,0,1-2.033,3.027,4.344,4.344,0,0,1-2.908,1.083,4.409,4.409,0,0,1-2.923-1.083,7.218,7.218,0,0,1-2.033-3.027,12.149,12.149,0,0,1-.742-4.437A11.768,11.768,0,0,1,364.552,206.245Zm2.211,7.137a4.452,4.452,0,0,0,1.128,1.81,2.277,2.277,0,0,0,1.617.653,2.388,2.388,0,0,0,1.6-.653,4.417,4.417,0,0,0,1.143-1.81,7.8,7.8,0,0,0,.415-2.686,7.885,7.885,0,0,0-.415-2.7,4.138,4.138,0,0,0-1.143-1.81,2.35,2.35,0,0,0-3.22,0,4.452,4.452,0,0,0-1.128,1.81,8,8,0,0,0-.415,2.7A8.235,8.235,0,0,0,366.763,213.383Z" transform="translate(-287.809 -193.559)" fill="#fff"/></g></g><g transform="translate(307.68 78.868)"><path d="M303.594,120.373c3.784,7.122,9.289,13.384,15.313,19.037,1.662,1.558,4.184,3.695,6.84,5.846a.055.055,0,0,1-.045-.015c5.386,4.407,11.262,8.918,11.277,8.888h.015c.045.03.074.059.089.059.045.03,13.518-9.526,18.755-14.052,6.262-5.4,12.019-11.455,16.085-18.414,7.553-12.939.341-32.6-16.812-34.365-6.5-.668-14.764,2.7-16.826,8.309-1.84-5.683-11.752-9.363-18.281-8.947C302.793,87.8,296.576,107.153,303.594,120.373Zm18.4-3.146a.773.773,0,0,1,.772-.757c1.246,0,2.478.015,3.724.015,2.478.015,4.956.015,7.419.03v-.95q.022-5.1.03-10.194a.773.773,0,0,1,.772-.757c2.107,0,4.229.015,6.336.015a.773.773,0,0,1,.757.772c0,1.246-.015,2.478-.015,3.724-.015,2.478-.015,4.956-.03,7.419h.95q5.1.022,10.194.03a.773.773,0,0,1,.757.772c0,2.107-.015,4.229-.015,6.336a.773.773,0,0,1-.772.757c-1.246,0-2.478-.015-3.724-.015-2.478-.015-4.956-.015-7.419-.03v.95q-.022,5.1-.03,10.194a.7.7,0,0,1-.237.549.689.689,0,0,1-.534.223c-2.107,0-4.229-.015-6.336-.015a.773.773,0,0,1-.757-.772c0-1.246.015-2.478.015-3.724.015-2.478.015-4.956.03-7.419h-.95q-5.1-.022-10.194-.03a.7.7,0,0,1-.549-.237.689.689,0,0,1-.223-.534C321.979,121.457,321.994,119.335,321.994,117.228Z" transform="translate(-285.759 -66.57)" fill="#fff"/><path d="M439.18,80.312a18.532,18.532,0,0,0-4.348,36.724l-1.973,38.846a3.06,3.06,0,0,0-2.181,2.79c-.059,2.226-.282,4.466-.534,6.677-.282,2.419-.623,4.822-1.053,7.211-.119.7-.252,1.395-.386,2.077a1.089,1.089,0,0,0-.03.178c0,.03-.015.059-.015.1-.089.4-.163.8-.252,1.2-.326,1.528-.7,3.042-1.1,4.57a84.009,84.009,0,0,1-7.508,19.334c-.178.312-.341.623-.519.935.074-.148-.312.534-.43.727-.49.8-1.009,1.6-1.543,2.4a52.943,52.943,0,0,1-3.279,4.348c-.549.653-1.128,1.306-1.721,1.944-.282.3-.564.594-.861.89l-.579.579c-.059.059-.193.178-.3.282a45.047,45.047,0,0,1-4.081,3.309c-.712.5-1.454,1.009-2.226,1.469-.356.223-.727.43-1.1.653.994-.594-.594.312-.846.445a38.318,38.318,0,0,1-5.431,2.255c-.193.059-.386.119-.579.193-.03.015-.045.015-.074.03s-.015,0-.03.015c-.445.119-.89.237-1.35.356-1.068.267-2.166.49-3.264.668-1.024.163-2.062.282-3.1.4-.074.015-.178.015-.267.03.074,0,.163-.015.282-.015-.148.015-.312.015-.46.03h-.089a.411.411,0,0,0-.134.015c-.7.03-1.395.059-2.092.074a70.248,70.248,0,0,1-7.286-.371H378.4c-.223-.03-.46-.059-.682-.1-.5-.074-1.009-.163-1.513-.252-1.2-.223-2.389-.475-3.546-.786-.935-.237-1.825-.534-2.73-.816-.015,0-.044-.015-.059-.015s-.03-.015-.059-.015l-.579-.223c-.564-.223-1.128-.445-1.677-.683-.816-.356-1.617-.742-2.4-1.143-.43-.223-.861-.445-1.276-.683-.208-.119-1.38-.846-1.1-.653a40.413,40.413,0,0,1-4.184-3.131c-.623-.534-1.217-1.083-1.8-1.647-.163-.148-.95-.994-.638-.638-.312-.326-.608-.653-.905-.994a47.863,47.863,0,0,1-5.98-8.71c-.03-.059-.074-.134-.1-.193-.044-.089-.1-.193-.134-.252-.178-.356-.356-.7-.519-1.054-.4-.831-.772-1.662-1.128-2.508-.668-1.6-1.276-3.22-1.81-4.852-.119-.371-.223-.742-.341-1.113a41.691,41.691,0,0,0,22.035-8.5c19.26-14.556,27.317-40.093,27.421-63.418.059-13,0-25.982,0-38.98a4.572,4.572,0,0,0-4.615-4.7,1.46,1.46,0,0,0-.252-.03c-3.072,0-6.143-.015-9.214-.015V73.16l-12.434-.03a2.254,2.254,0,0,0-2.255,2.255l-.015,4.6a2.254,2.254,0,0,0,2.255,2.255l12.434.03V80.134c1.439,0,2.879,0,4.318.015,0,.074-.015.134-.015.208v35.6c0,18.726-3.873,38.386-16.752,52.765-5.861,6.544-13.651,11.885-22.613,12.746-8.784.846-17.286-2.552-23.86-8.28-15.313-13.369-21.219-34.81-21.248-54.5q-.022-19.163,0-38.327c0-.074-.015-.134-.015-.208,1.291,0,2.582,0,3.873-.015V82.27l12.434-.03a2.254,2.254,0,0,0,2.255-2.255l-.015-4.6a2.254,2.254,0,0,0-2.255-2.255l-12.434.03v2.419q-4.607.022-9.214.015a1.724,1.724,0,0,0-.608.134,4.5,4.5,0,0,0-3.8,4.615v37.2c0,21.263,5.727,43.535,20.744,59.308a45.872,45.872,0,0,0,24.528,13.844c2.775,10.209,7.716,20.284,17.079,27.9,13.488,10.965,36.828,13.829,53.358,5.624,15.788-7.835,23.459-22.435,27.822-35.923a115.62,115.62,0,0,0,4.318-18.83,78.933,78.933,0,0,0,1.009-10.031c0-.148.015-.312.015-.46a2.99,2.99,0,0,0-1.751-2.76l1.973-38.861a18.566,18.566,0,0,0-.564-37.036Zm11.782,19.156a12.754,12.754,0,0,1-10.876,11.96l.237-4.763-4.956-.252-.237,4.763a12.739,12.739,0,1,1,15.832-11.707Z" transform="translate(-290.65 -73.13)" fill="#fff"/><path d="M391.672,87.822a4.36,4.36,0,1,0,4.14,4.57A4.362,4.362,0,0,0,391.672,87.822Z" transform="translate(-243.988 -66.025)" fill="#fff"/></g></g></svg>