<svg xmlns="http://www.w3.org/2000/svg" xmlns:xlink="http://www.w3.org/1999/xlink" width="254" height="251.848" viewBox="0 0 254 251.848"><defs><linearGradient id="a" y1="0.5" x2="1" y2="0.5" gradientUnits="objectBoundingBox"><stop offset="0" stop-color="#565656"/><stop offset="0.191" stop-color="#595959"/><stop offset="0.347" stop-color="#616263"/><stop offset="0.491" stop-color="#707274"/><stop offset="0.627" stop-color="#85898c"/><stop offset="0.758" stop-color="#a1a6ab"/><stop offset="0.883" stop-color="#c1c9d1"/><stop offset="1" stop-color="#e7f1fb"/></linearGradient></defs><g transform="translate(-255.45 -61.27)"><g transform="translate(255.45 61.27)"><g transform="translate(0 8.858)"><path d="M483.765,310.23H277.618a22.17,22.17,0,0,1-22.168-22.168V89.408A22.17,22.17,0,0,1,277.618,67.24H483.78a22.17,22.17,0,0,1,22.168,22.168V288.062A22.193,22.193,0,0,1,483.765,310.23Z" transform="translate(-255.45 -67.24)" fill="url(#a)"/></g><path d="M486.14,300.892H279.978a22.17,22.17,0,0,1-22.168-22.168V83.438A22.17,22.17,0,0,1,279.978,61.27H486.14a22.17,22.17,0,0,1,22.168,22.168V278.723A22.17,22.17,0,0,1,486.14,300.892Z" transform="translate(-254.308 -61.27)" fill="#bfbfbf"/><g transform="translate(78.286 198.001)"><path d="M310.881,196.63v24.928H308.21V196.63Zm-.979,0h8.131v3.71H309.9Zm0,9.749h7.671v3.635H309.9Zm0,11.47h8.131v3.71H309.9Z" transform="translate(-308.21 -193.781)" fill="#fff"/><path d="M317.1,209.682a7,7,0,0,1,1.9-2.923,3.787,3.787,0,0,1,2.537-1.009,3.146,3.146,0,0,1,2.344,1.039,7.059,7.059,0,0,1,1.588,2.938,15.816,15.816,0,0,1,.594,4.57,15.353,15.353,0,0,1-.594,4.555,7.124,7.124,0,0,1-1.588,2.953,3.2,3.2,0,0,1-2.344,1.039A3.861,3.861,0,0,1,319,221.834a6.967,6.967,0,0,1-1.9-2.938,15.257,15.257,0,0,1,0-9.215Zm2.3,7.419a4.223,4.223,0,0,0,1.157,1.781,2.44,2.44,0,0,0,1.573.608,2.163,2.163,0,0,0,1.41-.608,4.569,4.569,0,0,0,1.157-1.766,9.245,9.245,0,0,0,0-5.668,4.26,4.26,0,0,0-1.157-1.766,2.193,2.193,0,0,0-1.41-.608,2.411,2.411,0,0,0-1.573.608,3.963,3.963,0,0,0-1.157,1.781,9.451,9.451,0,0,0,0,5.639Zm8.265-22.391v27.777h-2.508V194.71Z" transform="translate(-304.252 -194.71)" fill="#fff"/><path d="M329.112,215.062a1.577,1.577,0,0,0,1.469.964,1.888,1.888,0,0,0,1.246-.445,2.988,2.988,0,0,0,.831-1.276,5.946,5.946,0,0,0,.3-1.944V202.39h2.478v16.381h-2.478v-2.522a5.269,5.269,0,0,1-1.306,2.152,2.693,2.693,0,0,1-1.9.727,2.976,2.976,0,0,1-2.73-1.706,9.519,9.519,0,0,1-.95-4.63v-10.4h2.552v9.971A6.054,6.054,0,0,0,329.112,215.062Z" transform="translate(-299.569 -190.994)" fill="#fff"/><path d="M336.917,213.407a4.706,4.706,0,0,0,1.187,1.84,2.467,2.467,0,0,0,1.662.683,3.143,3.143,0,0,0,1.454-.356,3.865,3.865,0,0,0,1.217-.994,4.474,4.474,0,0,0,.786-1.424V217.4a3.885,3.885,0,0,1-1.5,1.35,4.527,4.527,0,0,1-5.015-.579,7.381,7.381,0,0,1-2.048-3.027,12.15,12.15,0,0,1-.742-4.437,12.382,12.382,0,0,1,.742-4.451,7.425,7.425,0,0,1,2.048-3.012,4.419,4.419,0,0,1,2.938-1.083,4.3,4.3,0,0,1,2.077.5,3.992,3.992,0,0,1,1.5,1.35v4.244a3.715,3.715,0,0,0-.8-1.439,4.083,4.083,0,0,0-1.232-.979,3.069,3.069,0,0,0-1.424-.356,2.373,2.373,0,0,0-1.662.683,4.556,4.556,0,0,0-1.187,1.855,7.643,7.643,0,0,0-.43,2.7A7.189,7.189,0,0,0,336.917,213.407Z" transform="translate(-295.771 -191.106)" fill="#fff"/><path d="M344.16,215.207a1.9,1.9,0,0,0,.7.875,1.831,1.831,0,0,0,1.024.282,2.186,2.186,0,0,0,1.35-.46,3.366,3.366,0,0,0,.994-1.365,5.469,5.469,0,0,0,.386-2.122l.371,2.137a5.191,5.191,0,0,1-.594,2.612,4.079,4.079,0,0,1-1.469,1.573,3.577,3.577,0,0,1-1.81.519,3.142,3.142,0,0,1-1.84-.608,4.144,4.144,0,0,1-1.365-1.781,7.142,7.142,0,0,1-.5-2.849,6.079,6.079,0,0,1,1.083-3.8,3.644,3.644,0,0,1,3.057-1.41,4.259,4.259,0,0,1,1.825.356,4.867,4.867,0,0,1,1.276.831,3.409,3.409,0,0,1,.712.875v1.959a4.636,4.636,0,0,0-1.513-1.143,4.188,4.188,0,0,0-1.706-.356,2.4,2.4,0,0,0-1.261.3,1.884,1.884,0,0,0-.727.831,3.185,3.185,0,0,0-.237,1.321A3.4,3.4,0,0,0,344.16,215.207Zm-2.048-11.129a9.822,9.822,0,0,1,1.855-1.321,5.2,5.2,0,0,1,2.612-.638,4.415,4.415,0,0,1,2.315.608,4.215,4.215,0,0,1,1.573,1.721,5.937,5.937,0,0,1,.579,2.76v11.678h-2.433V207.951a3.826,3.826,0,0,0-.178-1.276,2.2,2.2,0,0,0-.475-.816,1.738,1.738,0,0,0-.712-.46,2.966,2.966,0,0,0-.905-.148,3.7,3.7,0,0,0-1.395.267,4.565,4.565,0,0,0-1.128.638,6.744,6.744,0,0,0-.7.623Z" transform="translate(-292.152 -191.125)" fill="#fff"/><path d="M352.237,213.407a4.706,4.706,0,0,0,1.187,1.84,2.467,2.467,0,0,0,1.662.683,3.143,3.143,0,0,0,1.454-.356,3.864,3.864,0,0,0,1.217-.994,4.473,4.473,0,0,0,.786-1.424V217.4a3.885,3.885,0,0,1-1.5,1.35,4.527,4.527,0,0,1-5.015-.579,7.381,7.381,0,0,1-2.048-3.027,12.148,12.148,0,0,1-.742-4.437,12.382,12.382,0,0,1,.742-4.451,7.425,7.425,0,0,1,2.048-3.012,4.419,4.419,0,0,1,2.938-1.083,4.3,4.3,0,0,1,2.077.5,3.993,3.993,0,0,1,1.5,1.35v4.244a3.716,3.716,0,0,0-.8-1.439,4.082,4.082,0,0,0-1.232-.979,3.069,3.069,0,0,0-1.424-.356,2.373,2.373,0,0,0-1.662.683,4.554,4.554,0,0,0-1.187,1.855,7.641,7.641,0,0,0-.43,2.7A7.844,7.844,0,0,0,352.237,213.407Z" transform="translate(-288.359 -191.106)" fill="#fff"/><path d="M357.775,197.093a1.36,1.36,0,0,1,1.1-.683,1.293,1.293,0,0,1,1.113.683,2.971,2.971,0,0,1,.445,1.677,3.059,3.059,0,0,1-.445,1.662,1.31,1.31,0,0,1-1.113.7,1.344,1.344,0,0,1-1.1-.7,2.885,2.885,0,0,1-.475-1.662A2.764,2.764,0,0,1,357.775,197.093Zm2.3,8.191v16.381h-2.433V205.283Z" transform="translate(-284.459 -193.888)" fill="#fff"/><path d="M361.692,209.38a7.4,7.4,0,0,1,2.033-3.012,4.409,4.409,0,0,1,2.923-1.083,4.344,4.344,0,0,1,2.908,1.083,7.447,7.447,0,0,1,2.033,3.012,13.428,13.428,0,0,1,0,8.888,7.5,7.5,0,0,1-2.033,3.027,4.344,4.344,0,0,1-2.908,1.083,4.409,4.409,0,0,1-2.923-1.083,7.218,7.218,0,0,1-2.033-3.027,12.149,12.149,0,0,1-.742-4.437A11.767,11.767,0,0,1,361.692,209.38Zm2.211,7.137a4.451,4.451,0,0,0,1.128,1.81,2.277,2.277,0,0,0,1.617.653,2.388,2.388,0,0,0,1.6-.653,4.417,4.417,0,0,0,1.143-1.81,7.8,7.8,0,0,0,.415-2.686,7.885,7.885,0,0,0-.415-2.7,4.138,4.138,0,0,0-1.143-1.81,2.35,2.35,0,0,0-3.22,0,4.451,4.451,0,0,0-1.128,1.81,8,8,0,0,0-.415,2.7A8.233,8.233,0,0,0,363.9,216.518Zm2.285-13.9-1.41-1.246,3.457-5.7,2.092,1.6Z" transform="translate(-282.694 -194.246)" fill="#fff"/><path d="M376.556,206.171a1.571,1.571,0,0,0-1.5-.92,1.839,1.839,0,0,0-1.217.445,2.988,2.988,0,0,0-.831,1.276,5.522,5.522,0,0,0-.3,1.944v9.971H370.22V202.506h2.493v2.522a5.043,5.043,0,0,1,1.306-2.166,2.747,2.747,0,0,1,1.9-.712,2.994,2.994,0,0,1,2.745,1.692,9.635,9.635,0,0,1,.95,4.644v10.4H377.06v-9.971A6.636,6.636,0,0,0,376.556,206.171Z" transform="translate(-278.209 -191.11)" fill="#fff"/></g></g><g transform="translate(293.367 113.665)"><path d="M306.134,154.255a7.417,7.417,0,0,0-5.861,7.256,7.321,7.321,0,0,0,1.513,4.481l-3.1,18.34a2.7,2.7,0,0,0,2.656,3.161h12.687a2.663,2.663,0,0,0,2.033-.935,2.7,2.7,0,0,0,.638-2.152l-2.641-19.126a7.4,7.4,0,0,0-2.522-10.1v-9.927l16.708,7.241v41.473a9.277,9.277,0,0,0,9.274,9.274h76.238a9.277,9.277,0,0,0,9.274-9.274v-44.01l39.8-17.272a2.707,2.707,0,0,0-.193-5.045L372.119,96.728a2.661,2.661,0,0,0-1.825.03c-30.982,11.737-81.877,30.433-86.61,30.73a2.7,2.7,0,0,0-1.053,5.179l23.518,10.209v11.381Zm-1.588,27.822,2.79-16.5a2.675,2.675,0,0,0-.935-2.522,2.015,2.015,0,1,1,3.309-1.543,1.944,1.944,0,0,1-.5,1.321,2.7,2.7,0,0,0-.638,2.152l2.359,17.108h-6.38Zm113.082,11.9a3.876,3.876,0,0,1-3.873,3.873H337.517a3.863,3.863,0,0,1-3.858-3.873V154.849l37.986,16.485a2.7,2.7,0,0,0,1.068.223,2.831,2.831,0,0,0,1.083-.223l43.832-19.008v41.651ZM291.9,130.841c19.572-6.1,66.564-23.786,79.384-28.638l82.975,28.326L372.728,165.9,318.88,142.548l45.464-5.995a16.424,16.424,0,0,0,8.384,1.973c6.262,0,11-2.493,11-5.8s-4.733-5.8-11-5.8c-5.4,0-9.66,1.855-10.728,4.5l-52.765,6.959Zm72.529,1.87c0-1.261,3.235-3.1,8.295-3.1s8.295,1.84,8.295,3.1-3.235,3.1-8.295,3.1S364.433,133.972,364.433,132.71Z" transform="translate(-281.004 -96.581)" fill="#fff"/></g></g></svg>