<svg xmlns="http://www.w3.org/2000/svg" xmlns:xlink="http://www.w3.org/1999/xlink" width="254" height="251.848" viewBox="0 0 254 251.848"><defs><linearGradient id="a" y1="0.5" x2="1" y2="0.5" gradientUnits="objectBoundingBox"><stop offset="0" stop-color="#565656"/><stop offset="0.191" stop-color="#595959"/><stop offset="0.347" stop-color="#616263"/><stop offset="0.491" stop-color="#707274"/><stop offset="0.627" stop-color="#85898c"/><stop offset="0.758" stop-color="#a1a6ab"/><stop offset="0.883" stop-color="#c1c9d1"/><stop offset="1" stop-color="#e7f1fb"/></linearGradient></defs><g transform="translate(-255.45 -61.27)"><g transform="translate(255.45 61.27)"><g transform="translate(0 8.858)"><path d="M483.765,310.23H277.618a22.17,22.17,0,0,1-22.168-22.168V89.408A22.17,22.17,0,0,1,277.618,67.24H483.78a22.17,22.17,0,0,1,22.168,22.168V288.062A22.193,22.193,0,0,1,483.765,310.23Z" transform="translate(-255.45 -67.24)" fill="url(#a)"/></g><path d="M486.14,300.892H279.978a22.17,22.17,0,0,1-22.168-22.168V83.438A22.17,22.17,0,0,1,279.978,61.27H486.14a22.17,22.17,0,0,1,22.168,22.168V278.723A22.17,22.17,0,0,1,486.14,300.892Z" transform="translate(-254.308 -61.27)" fill="#bfbfbf"/><g transform="translate(52.156 198)"><path d="M293.4,221.965h-2.8l2.211-26.175,6.6,16.915,6.633-16.915,2.211,26.175h-2.8L304.325,206.8l-4.9,12.85-4.9-12.85Z" transform="translate(-290.6 -194.187)" fill="#fff"/><path d="M306.157,218.175a6.828,6.828,0,0,1-1.9-3,13.631,13.631,0,0,1-.668-4.481,13.445,13.445,0,0,1,.683-4.526,6.74,6.74,0,0,1,1.914-2.968,4.394,4.394,0,0,1,2.923-1.054,4.222,4.222,0,0,1,2.849.994,6.358,6.358,0,0,1,1.81,2.864,14.3,14.3,0,0,1,.638,4.511c0,.193,0,.386-.015.608s-.015.371-.03.46h-9.3v-2.641h7.182l-.757,1.632c.045-.148.089-.341.148-.594a2.686,2.686,0,0,0,.074-.623,7.054,7.054,0,0,0-.341-2.285,3.635,3.635,0,0,0-.92-1.5,1.955,1.955,0,0,0-1.365-.534,2.251,2.251,0,0,0-1.617.638,3.958,3.958,0,0,0-1.009,1.855,12.04,12.04,0,0,0-.371,3,11.615,11.615,0,0,0,.341,3.012,4.026,4.026,0,0,0,1.024,1.87,2.272,2.272,0,0,0,1.647.638,2.64,2.64,0,0,0,1.766-.638,4.668,4.668,0,0,0,1.261-1.959l2.137,1.35a7.716,7.716,0,0,1-2.137,3.309,4.715,4.715,0,0,1-3.161,1.1A4.05,4.05,0,0,1,306.157,218.175Z" transform="translate(-284.315 -191.11)" fill="#fff"/><path d="M312.652,209.682a7,7,0,0,1,1.9-2.923,3.787,3.787,0,0,1,2.537-1.009,3.147,3.147,0,0,1,2.344,1.039,7.06,7.06,0,0,1,1.588,2.938,15.818,15.818,0,0,1,.594,4.57,15.355,15.355,0,0,1-.594,4.555,7.125,7.125,0,0,1-1.588,2.953,3.2,3.2,0,0,1-2.344,1.039,3.861,3.861,0,0,1-2.537-1.009,6.966,6.966,0,0,1-1.9-2.938,15.257,15.257,0,0,1,0-9.215Zm2.3,7.419a4.223,4.223,0,0,0,1.157,1.781,2.44,2.44,0,0,0,1.573.608,2.163,2.163,0,0,0,1.41-.608,4.57,4.57,0,0,0,1.157-1.766,9.245,9.245,0,0,0,0-5.668,4.261,4.261,0,0,0-1.157-1.766,2.193,2.193,0,0,0-1.41-.608,2.411,2.411,0,0,0-1.573.608,3.962,3.962,0,0,0-1.157,1.781,9.451,9.451,0,0,0,0,5.639Zm8.265-22.391v27.777h-2.508V194.71Z" transform="translate(-280.275 -194.71)" fill="#fff"/><path d="M322.035,197.093a1.36,1.36,0,0,1,1.1-.683,1.293,1.293,0,0,1,1.113.683,2.971,2.971,0,0,1,.445,1.677,3.059,3.059,0,0,1-.445,1.662,1.31,1.31,0,0,1-1.113.7,1.344,1.344,0,0,1-1.1-.7,2.885,2.885,0,0,1-.475-1.662A2.764,2.764,0,0,1,322.035,197.093Zm2.315,8.191v16.381h-2.434V205.283Z" transform="translate(-275.621 -193.887)" fill="#fff"/><path d="M325.952,206.245a7.4,7.4,0,0,1,2.033-3.012,4.409,4.409,0,0,1,2.923-1.083,4.344,4.344,0,0,1,2.908,1.083,7.446,7.446,0,0,1,2.033,3.012,13.427,13.427,0,0,1,0,8.888,7.5,7.5,0,0,1-2.033,3.027,4.344,4.344,0,0,1-2.908,1.083,4.409,4.409,0,0,1-2.923-1.083,7.219,7.219,0,0,1-2.033-3.027,12.15,12.15,0,0,1-.742-4.437A11.769,11.769,0,0,1,325.952,206.245Zm2.211,7.137a4.451,4.451,0,0,0,1.128,1.81,2.277,2.277,0,0,0,1.617.653,2.388,2.388,0,0,0,1.6-.653,4.417,4.417,0,0,0,1.143-1.81,7.8,7.8,0,0,0,.415-2.686,7.885,7.885,0,0,0-.415-2.7,4.138,4.138,0,0,0-1.143-1.81,2.35,2.35,0,0,0-3.22,0,4.451,4.451,0,0,0-1.128,1.81,8,8,0,0,0-.415,2.7A8.233,8.233,0,0,0,328.163,213.383Z" transform="translate(-273.855 -191.11)" fill="#fff"/><path d="M336.61,215.207a1.9,1.9,0,0,0,.7.875,1.832,1.832,0,0,0,1.024.282,2.187,2.187,0,0,0,1.35-.46,3.367,3.367,0,0,0,.994-1.365,5.47,5.47,0,0,0,.386-2.122l.371,2.137a5.191,5.191,0,0,1-.594,2.612,4.079,4.079,0,0,1-1.469,1.573,3.577,3.577,0,0,1-1.81.519,3.142,3.142,0,0,1-1.84-.608,4.144,4.144,0,0,1-1.365-1.781,7.141,7.141,0,0,1-.5-2.849,6.079,6.079,0,0,1,1.083-3.8,3.644,3.644,0,0,1,3.057-1.41,4.259,4.259,0,0,1,1.825.356,4.867,4.867,0,0,1,1.276.831,3.409,3.409,0,0,1,.712.875v1.959a4.635,4.635,0,0,0-1.513-1.143,4.188,4.188,0,0,0-1.706-.356,2.4,2.4,0,0,0-1.261.3,1.884,1.884,0,0,0-.727.831,3.969,3.969,0,0,0,.015,2.745Zm-2.062-11.129a9.818,9.818,0,0,1,1.855-1.321,5.2,5.2,0,0,1,2.612-.638,4.415,4.415,0,0,1,2.315.608,4.215,4.215,0,0,1,1.573,1.721,5.937,5.937,0,0,1,.579,2.76v11.678h-2.433V207.951a3.825,3.825,0,0,0-.178-1.276,2.195,2.195,0,0,0-.475-.816,1.738,1.738,0,0,0-.712-.46,2.966,2.966,0,0,0-.905-.148,3.7,3.7,0,0,0-1.395.267,4.565,4.565,0,0,0-1.128.638,6.741,6.741,0,0,0-.7.623Z" transform="translate(-269.675 -191.125)" fill="#fff"/><path d="M357.455,218.887h-2.493v-9.971a6.852,6.852,0,0,0-.43-2.76,1.4,1.4,0,0,0-1.35-.905,1.6,1.6,0,0,0-1.1.43,2.819,2.819,0,0,0-.742,1.246,6.514,6.514,0,0,0-.267,1.988v9.971H348.6v-9.971a6.853,6.853,0,0,0-.43-2.76,1.4,1.4,0,0,0-1.35-.905,1.609,1.609,0,0,0-1.113.43,2.674,2.674,0,0,0-.727,1.246,7.047,7.047,0,0,0-.252,1.988v9.971H342.29V202.506h2.434V204.9a4.989,4.989,0,0,1,1.2-2.048,2.5,2.5,0,0,1,1.766-.7,2.712,2.712,0,0,1,1.944.742,4.23,4.23,0,0,1,1.113,2.166,5.423,5.423,0,0,1,1.395-2.166,2.778,2.778,0,0,1,1.914-.742,2.527,2.527,0,0,1,1.87.727,4.412,4.412,0,0,1,1.113,2.152,13.7,13.7,0,0,1,.371,3.457v10.4Z" transform="translate(-265.591 -191.11)" fill="#fff"/><path d="M357.1,222.487H354.59V194.71H357.1Zm8.057-3.606a7.191,7.191,0,0,1-1.884,2.938,3.768,3.768,0,0,1-2.552,1.009,3.162,3.162,0,0,1-2.33-1.039,6.971,6.971,0,0,1-1.6-2.953,18.278,18.278,0,0,1,0-9.125,6.907,6.907,0,0,1,1.6-2.938,3.218,3.218,0,0,1,2.33-1.039,3.869,3.869,0,0,1,2.552,1.009,6.986,6.986,0,0,1,1.884,2.923,15.257,15.257,0,0,1,0,9.215Zm-2.315-7.4a4.222,4.222,0,0,0-1.157-1.781,2.486,2.486,0,0,0-1.6-.608,2.163,2.163,0,0,0-1.41.608,4.392,4.392,0,0,0-1.143,1.766,9.245,9.245,0,0,0,0,5.668,4.392,4.392,0,0,0,1.143,1.766,2.163,2.163,0,0,0,1.41.608,2.486,2.486,0,0,0,1.6-.608,3.962,3.962,0,0,0,1.157-1.781,8.345,8.345,0,0,0,.43-2.819A7.666,7.666,0,0,0,362.84,211.477Z" transform="translate(-259.641 -194.71)" fill="#fff"/><path d="M364.195,197.093a1.36,1.36,0,0,1,1.1-.683,1.293,1.293,0,0,1,1.113.683,2.971,2.971,0,0,1,.445,1.677,3.058,3.058,0,0,1-.445,1.662,1.31,1.31,0,0,1-1.113.7,1.344,1.344,0,0,1-1.1-.7,3.171,3.171,0,0,1,0-3.339Zm2.315,8.191v16.381h-2.433V205.283Z" transform="translate(-255.223 -193.887)" fill="#fff"/><path d="M369.937,218.175a6.828,6.828,0,0,1-1.9-3,13.631,13.631,0,0,1-.668-4.481,13.446,13.446,0,0,1,.682-4.526,6.74,6.74,0,0,1,1.914-2.968,4.394,4.394,0,0,1,2.923-1.054,4.222,4.222,0,0,1,2.849.994,6.358,6.358,0,0,1,1.81,2.864,14.3,14.3,0,0,1,.638,4.511c0,.193,0,.386-.015.608s-.015.371-.03.46h-9.3v-2.641h7.182l-.757,1.632c.044-.148.089-.341.148-.594a2.687,2.687,0,0,0,.074-.623,7.052,7.052,0,0,0-.341-2.285,3.635,3.635,0,0,0-.92-1.5,1.955,1.955,0,0,0-1.365-.534,2.251,2.251,0,0,0-1.617.638,3.958,3.958,0,0,0-1.009,1.855,12.041,12.041,0,0,0-.371,3,11.612,11.612,0,0,0,.341,3.012,4.026,4.026,0,0,0,1.024,1.87,2.272,2.272,0,0,0,1.647.638,2.64,2.64,0,0,0,1.766-.638,4.668,4.668,0,0,0,1.261-1.959l2.137,1.35a7.716,7.716,0,0,1-2.137,3.309,4.715,4.715,0,0,1-3.161,1.1A4,4,0,0,1,369.937,218.175Z" transform="translate(-253.457 -191.11)" fill="#fff"/><path d="M382.586,206.171a1.571,1.571,0,0,0-1.5-.92,1.839,1.839,0,0,0-1.217.445,2.988,2.988,0,0,0-.831,1.276,5.521,5.521,0,0,0-.3,1.944v9.971H376.25V202.506h2.493v2.522a5.044,5.044,0,0,1,1.306-2.166,2.747,2.747,0,0,1,1.9-.712,2.993,2.993,0,0,1,2.745,1.692,9.634,9.634,0,0,1,.95,4.644v10.4H383.09v-9.971A6.184,6.184,0,0,0,382.586,206.171Z" transform="translate(-249.161 -191.11)" fill="#fff"/><path d="M389.729,204.248v3.383H383.72v-3.383Zm-1.781-5.7v22.079h-2.463V198.55Z" transform="translate(-245.547 -192.852)" fill="#fff"/><path d="M390.937,218.175a6.828,6.828,0,0,1-1.9-3,13.631,13.631,0,0,1-.668-4.481,13.446,13.446,0,0,1,.682-4.526,6.74,6.74,0,0,1,1.914-2.968,4.394,4.394,0,0,1,2.923-1.054,4.222,4.222,0,0,1,2.849.994,6.358,6.358,0,0,1,1.81,2.864,14.3,14.3,0,0,1,.638,4.511c0,.193,0,.386-.015.608s-.015.371-.03.46h-9.3v-2.641h7.182l-.757,1.632c.045-.148.089-.341.148-.594a2.687,2.687,0,0,0,.074-.623,7.054,7.054,0,0,0-.341-2.285,3.635,3.635,0,0,0-.92-1.5,1.955,1.955,0,0,0-1.365-.534,2.251,2.251,0,0,0-1.617.638,3.958,3.958,0,0,0-1.009,1.855,12.041,12.041,0,0,0-.371,3,11.615,11.615,0,0,0,.341,3.012,4.026,4.026,0,0,0,1.024,1.87,2.272,2.272,0,0,0,1.647.638,2.64,2.64,0,0,0,1.766-.638,4.668,4.668,0,0,0,1.261-1.959l2.137,1.35a7.716,7.716,0,0,1-2.137,3.309,4.715,4.715,0,0,1-3.161,1.1A4,4,0,0,1,390.937,218.175Z" transform="translate(-243.297 -191.11)" fill="#fff"/></g></g><g transform="translate(334.232 82.085)"><path d="M343.835,100.434V87.317c0-2.166-.935-3.917-2.077-3.917s-2.077,1.751-2.077,3.917V89.81c3.324,5.98,3.813,12.212.727,16.93a11.246,11.246,0,0,1-.727.935V131.3h4.155V112.691a.723.723,0,0,1-.045-.1A17.142,17.142,0,0,1,343.835,100.434Z" transform="translate(-293.48 -71.378)" fill="#fff"/><path d="M408.405,89.772c-4.644-11.767-23.133-15.61-41.22-8.562-8.591,3.353-15.862,8.636-20.477,14.868a27.348,27.348,0,0,0-3.858,7.122,17.141,17.141,0,0,0-.045,12.152.723.723,0,0,1,.045.1c3.1,7.716,12.182,12,23.177,12a49.994,49.994,0,0,0,17.984-3.531C402.1,116.867,413.035,101.554,408.405,89.772ZM350.3,98.7c4.125-5.579,10.7-10.327,18.518-13.369h0a46.518,46.518,0,0,1,16.634-3.294c8.547,0,15.536,2.923,18.325,8.309L370.36,103.868,373.031,93.3a2.228,2.228,0,0,0-4.318-1.1l-3.487,13.71-18.4,7.449C345.284,109.032,346.5,103.839,350.3,98.7Zm32.095,21.085c-13.636,5.312-27.332,4.006-33.237-2.552l33.638-13.607,16.737,2.344a2.193,2.193,0,0,0,.312.015,2.221,2.221,0,0,0,.312-4.422l-9.125-1.276,13.963-5.653C405.734,103.631,396.431,114.3,382.394,119.79Z" transform="translate(-292.495 -74.145)" fill="#fff"/><path d="M334.772,115.67c-11.292,0-20.491,8.71-20.491,19.423v47.3c0,10.713,9.185,19.423,20.491,19.423h44.885c11.307,0,20.492-8.71,20.492-19.423v-47.3c0-10.713-9.2-19.423-20.492-19.423H334.772ZM395.7,182.4c0,8.265-7.2,14.987-16.04,14.987H334.772c-8.844,0-16.025-6.722-16.025-14.987V170.171H395.7V182.4Zm0-16.663H318.746V152.676H395.7v13.058Zm-16.04-45.613c8.844,0,16.04,6.722,16.04,14.987V148.24H318.746V135.108c0-8.265,7.2-14.987,16.025-14.987h44.885Z" transform="translate(-305.769 -55.765)" fill="#fff"/><path d="M354.744,93.73a36.311,36.311,0,0,0-12.019-12.4h0A35.179,35.179,0,0,0,324.534,75.3c-4.822-.074-8.844,1.232-11.693,3.695-.089.074-.163.148-.237.223a12.712,12.712,0,0,0-1.988,2.285c-5.431,8.28.163,21.159,12.731,29.32a35.178,35.178,0,0,0,18.192,6.024h.4c5.579,0,10.06-1.87,12.791-5.282.252-.312.5-.608.727-.935C358.558,105.927,358.068,99.71,354.744,93.73Zm-13.132,18.7a30.79,30.79,0,0,1-15.832-5.3c-10.12-6.573-15.358-17.2-11.44-23.177.074-.119.178-.208.252-.326l36.769,25.047C349.462,111.165,346.034,112.5,341.612,112.426Zm11.381-8.027-6.069-4.14a2.167,2.167,0,0,0-.148-.668l-3.828-9.585a2.238,2.238,0,0,0-2.893-1.246,2.215,2.215,0,0,0-1.246,2.879l1.692,4.214L318.331,80.791a15.054,15.054,0,0,1,5.8-1.054h.326a30.789,30.789,0,0,1,15.832,5.3h0C348.512,90.377,353.5,98.374,352.993,104.4Z" transform="translate(-308.544 -75.298)" fill="#fff"/></g></g></svg>