<svg xmlns="http://www.w3.org/2000/svg" xmlns:xlink="http://www.w3.org/1999/xlink" width="254" height="251.848" viewBox="0 0 254 251.848"><defs><linearGradient id="a" y1="0.5" x2="1" y2="0.5" gradientUnits="objectBoundingBox"><stop offset="0" stop-color="#565656"/><stop offset="0.191" stop-color="#595959"/><stop offset="0.347" stop-color="#616263"/><stop offset="0.491" stop-color="#707274"/><stop offset="0.627" stop-color="#85898c"/><stop offset="0.758" stop-color="#a1a6ab"/><stop offset="0.883" stop-color="#c1c9d1"/><stop offset="1" stop-color="#e7f1fb"/></linearGradient></defs><g transform="translate(-255.45 -61.27)"><g transform="translate(255.45 61.27)"><g transform="translate(0 8.858)"><path d="M483.765,310.23H277.618a22.17,22.17,0,0,1-22.168-22.168V89.408A22.17,22.17,0,0,1,277.618,67.24H483.78a22.17,22.17,0,0,1,22.168,22.168V288.062A22.193,22.193,0,0,1,483.765,310.23Z" transform="translate(-255.45 -67.24)" fill="url(#a)"/></g><path d="M486.14,300.892H279.978a22.17,22.17,0,0,1-22.168-22.168V83.438A22.17,22.17,0,0,1,279.978,61.27H486.14a22.17,22.17,0,0,1,22.168,22.168V278.723A22.17,22.17,0,0,1,486.14,300.892Z" transform="translate(-254.308 -61.27)" fill="#bfbfbf"/><g transform="translate(83.984 198)"><path d="M324.662,196.63h3.131l-7.879,26.323L312.05,196.63h3.131l4.748,17.524Z" transform="translate(-312.05 -193.781)" fill="#fff"/><path d="M324.195,197.093a1.36,1.36,0,0,1,1.1-.683,1.293,1.293,0,0,1,1.113.683,2.971,2.971,0,0,1,.445,1.677,3.058,3.058,0,0,1-.445,1.662,1.31,1.31,0,0,1-1.113.7,1.344,1.344,0,0,1-1.1-.7,2.885,2.885,0,0,1-.475-1.662A2.764,2.764,0,0,1,324.195,197.093Zm2.3,8.191v16.381h-2.434V205.283Z" transform="translate(-306.404 -193.887)" fill="#fff"/><path d="M329.535,202.39l2.76,10.58,2.76-10.58H337.8l-5.5,17.88-5.475-17.88Z" transform="translate(-304.904 -190.994)" fill="#fff"/><path d="M335.685,197.093a1.36,1.36,0,0,1,1.1-.683,1.293,1.293,0,0,1,1.113.683,2.971,2.971,0,0,1,.445,1.677,3.058,3.058,0,0,1-.445,1.662,1.31,1.31,0,0,1-1.113.7,1.344,1.344,0,0,1-1.1-.7,3.172,3.172,0,0,1,0-3.339ZM338,205.283v16.381h-2.434V205.283Z" transform="translate(-300.845 -193.887)" fill="#fff"/><path d="M341.427,218.175a6.827,6.827,0,0,1-1.9-3,13.631,13.631,0,0,1-.668-4.481,13.446,13.446,0,0,1,.683-4.526,6.74,6.74,0,0,1,1.914-2.968,4.394,4.394,0,0,1,2.923-1.054,4.222,4.222,0,0,1,2.849.994,6.358,6.358,0,0,1,1.81,2.864,14.3,14.3,0,0,1,.638,4.511c0,.193,0,.386-.015.608s-.015.371-.03.46h-9.3v-2.641h7.182l-.757,1.632c.045-.148.089-.341.148-.593a2.684,2.684,0,0,0,.074-.623,7.054,7.054,0,0,0-.341-2.285,3.635,3.635,0,0,0-.92-1.5,1.955,1.955,0,0,0-1.365-.534,2.251,2.251,0,0,0-1.617.638,3.958,3.958,0,0,0-1.009,1.855,12.041,12.041,0,0,0-.371,3,11.614,11.614,0,0,0,.341,3.012,4.026,4.026,0,0,0,1.024,1.87,2.272,2.272,0,0,0,1.647.638,2.64,2.64,0,0,0,1.766-.638,4.667,4.667,0,0,0,1.261-1.959l2.137,1.35a7.715,7.715,0,0,1-2.137,3.309,4.715,4.715,0,0,1-3.161,1.1A4,4,0,0,1,341.427,218.175Z" transform="translate(-299.079 -191.11)" fill="#fff"/><path d="M354.076,206.171a1.571,1.571,0,0,0-1.5-.92,1.839,1.839,0,0,0-1.217.445,2.987,2.987,0,0,0-.831,1.276,5.521,5.521,0,0,0-.3,1.944v9.971H347.74V202.506h2.493v2.522a5.043,5.043,0,0,1,1.306-2.166,2.747,2.747,0,0,1,1.9-.712,2.993,2.993,0,0,1,2.745,1.692,9.634,9.634,0,0,1,.95,4.644v10.4H354.58v-9.971A6.184,6.184,0,0,0,354.076,206.171Z" transform="translate(-294.783 -191.11)" fill="#fff"/><path d="M356.372,209.682a7,7,0,0,1,1.9-2.923,3.787,3.787,0,0,1,2.537-1.009,3.146,3.146,0,0,1,2.344,1.039,7.06,7.06,0,0,1,1.588,2.938,15.818,15.818,0,0,1,.594,4.57,15.354,15.354,0,0,1-.594,4.555,7.125,7.125,0,0,1-1.588,2.953,3.2,3.2,0,0,1-2.344,1.039,3.861,3.861,0,0,1-2.537-1.009,6.967,6.967,0,0,1-1.9-2.938,15.256,15.256,0,0,1,0-9.215Zm2.3,7.419a4.223,4.223,0,0,0,1.157,1.781,2.44,2.44,0,0,0,1.573.608,2.163,2.163,0,0,0,1.41-.608,4.57,4.57,0,0,0,1.157-1.766,9.246,9.246,0,0,0,0-5.668,4.261,4.261,0,0,0-1.157-1.766,2.193,2.193,0,0,0-1.41-.608,2.411,2.411,0,0,0-1.573.608,3.962,3.962,0,0,0-1.157,1.781,8.344,8.344,0,0,0-.43,2.819A7.666,7.666,0,0,0,358.672,217.1Zm8.265-22.391v27.777h-2.508V194.71Z" transform="translate(-290.951 -194.71)" fill="#fff"/><path d="M367.46,215.207a1.9,1.9,0,0,0,.7.875,1.832,1.832,0,0,0,1.024.282,2.187,2.187,0,0,0,1.35-.46,3.366,3.366,0,0,0,.994-1.365,5.471,5.471,0,0,0,.386-2.122l.371,2.137a5.192,5.192,0,0,1-.594,2.611,4.08,4.08,0,0,1-1.469,1.573,3.577,3.577,0,0,1-1.81.519,3.141,3.141,0,0,1-1.84-.608,4.143,4.143,0,0,1-1.365-1.781,7.141,7.141,0,0,1-.5-2.849,6.078,6.078,0,0,1,1.083-3.8,3.644,3.644,0,0,1,3.057-1.41,4.26,4.26,0,0,1,1.825.356,4.867,4.867,0,0,1,1.276.831,3.409,3.409,0,0,1,.712.875v1.959a4.634,4.634,0,0,0-1.513-1.143,4.187,4.187,0,0,0-1.706-.356,2.4,2.4,0,0,0-1.261.3,1.884,1.884,0,0,0-.727.831,3.185,3.185,0,0,0-.237,1.321A3.652,3.652,0,0,0,367.46,215.207Zm-2.048-11.129a9.822,9.822,0,0,1,1.855-1.321,5.2,5.2,0,0,1,2.612-.638,4.415,4.415,0,0,1,2.315.608,4.215,4.215,0,0,1,1.573,1.721,5.937,5.937,0,0,1,.579,2.76v11.678h-2.433V207.951a3.825,3.825,0,0,0-.178-1.276,2.195,2.195,0,0,0-.475-.816,1.739,1.739,0,0,0-.712-.46,2.968,2.968,0,0,0-.905-.148,3.7,3.7,0,0,0-1.395.267,4.564,4.564,0,0,0-1.128.638,6.751,6.751,0,0,0-.7.623Z" transform="translate(-286.577 -191.125)" fill="#fff"/></g></g><g transform="translate(297.546 82.459)"><path d="M406.487,119.723l-5,6.173L340.68,81.723l4.986-6.173Z" transform="translate(-256.31 -75.55)" fill="#fff"/><path d="M364.027,75.55l4.926,6.217L307.7,125.391l-4.941-6.217Z" transform="translate(-274.656 -75.55)" fill="#fff"/><path d="M413,156.062V119.234L367.433,88.89l-45.568,30.359v34.1l-26.6,21.486v45.791h59.471V185.234H381.2v35.389H438.6V174.818Zm-70.763,43.446H312.012V185.234h30.225Zm18.844-54.278H330.456V123.389h30.626Zm9.838-21.842h30.626V145.23H370.92Zm54.872,76.12H395.566V185.234h30.225Z" transform="translate(-278.285 -69.096)" fill="#fff"/><path d="M379.82,124.21v10.1s30.329,23.593,31.13,23,4.763-6.944,4.763-6.944Z" transform="translate(-237.374 -52.007)" fill="#fff"/><path d="M319.714,124.21v10.1s-30.329,23.593-31.13,23-4.763-6.944-4.763-6.944Z" transform="translate(-283.82 -52.007)" fill="#fff"/></g></g></svg>