<svg xmlns="http://www.w3.org/2000/svg" xmlns:xlink="http://www.w3.org/1999/xlink" width="254" height="251.848" viewBox="0 0 254 251.848"><defs><linearGradient id="a" y1="0.5" x2="1" y2="0.5" gradientUnits="objectBoundingBox"><stop offset="0" stop-color="#565656"/><stop offset="0.191" stop-color="#595959"/><stop offset="0.347" stop-color="#616263"/><stop offset="0.491" stop-color="#707274"/><stop offset="0.627" stop-color="#85898c"/><stop offset="0.758" stop-color="#a1a6ab"/><stop offset="0.883" stop-color="#c1c9d1"/><stop offset="1" stop-color="#e7f1fb"/></linearGradient></defs><g transform="translate(-255.45 -61.27)"><g transform="translate(255.45 61.27)"><g transform="translate(0 8.858)"><path d="M483.765,310.23H277.618a22.17,22.17,0,0,1-22.168-22.168V89.408A22.17,22.17,0,0,1,277.618,67.24H483.78a22.17,22.17,0,0,1,22.168,22.168V288.062A22.193,22.193,0,0,1,483.765,310.23Z" transform="translate(-255.45 -67.24)" fill="url(#a)"/></g><path d="M486.14,300.892H279.978a22.17,22.17,0,0,1-22.168-22.168V83.438A22.17,22.17,0,0,1,279.978,61.27H486.14a22.17,22.17,0,0,1,22.168,22.168V278.723A22.17,22.17,0,0,1,486.14,300.892Z" transform="translate(-254.308 -61.27)" fill="#bfbfbf"/><g transform="translate(90.721 199.662)"><path d="M325.181,208.66h7.76a23.285,23.285,0,0,1-.46,5.179,16.362,16.362,0,0,1-1.513,4.333,8.467,8.467,0,0,1-2.522,2.968,5.7,5.7,0,0,1-3.413,1.083,6.287,6.287,0,0,1-3.368-.95,8.738,8.738,0,0,1-2.686-2.686,13.957,13.957,0,0,1-1.766-4.125,20.7,20.7,0,0,1-.623-5.238,19.912,19.912,0,0,1,.638-5.223,13.954,13.954,0,0,1,1.781-4.1,8.474,8.474,0,0,1,2.686-2.656,6.647,6.647,0,0,1,6.247-.267,7.493,7.493,0,0,1,2.315,1.884,11.254,11.254,0,0,1,1.736,2.968l-2.211,2.285a7.155,7.155,0,0,0-1.855-2.849,4.245,4.245,0,0,0-5.7.059,7.861,7.861,0,0,0-2.033,3.131,13.452,13.452,0,0,0-.757,4.748,13.994,13.994,0,0,0,.742,4.748,7.823,7.823,0,0,0,2.018,3.19,4.173,4.173,0,0,0,2.849,1.143,3.9,3.9,0,0,0,1.929-.46,4.42,4.42,0,0,0,1.469-1.321,8.456,8.456,0,0,0,1.039-1.959,11.831,11.831,0,0,0,.623-2.344h-4.941V208.66Z" transform="translate(-316.59 -195.588)" fill="#fff"/><path d="M330.279,212h6.648a7.83,7.83,0,0,0-.4-2.048,3.08,3.08,0,0,0-.861-1.35,1.965,1.965,0,0,0-1.365-.475,2.283,2.283,0,0,0-1.5.549,3.649,3.649,0,0,0-1.053,1.6,6.956,6.956,0,0,0-.386,2.478l-.044.994a9.65,9.65,0,0,0,.386,3.012,3.817,3.817,0,0,0,1.053,1.781,2.385,2.385,0,0,0,1.573.594,2.548,2.548,0,0,0,1.306-.326,3.178,3.178,0,0,0,.994-.905,5.687,5.687,0,0,0,.742-1.365l2.137,1.35a12.985,12.985,0,0,1-1.2,2.315,4.576,4.576,0,0,1-4.1,2.092,4.131,4.131,0,0,1-2.849-1.1,7.152,7.152,0,0,1-1.884-3.042,13.453,13.453,0,0,1-.668-4.392,8.635,8.635,0,0,1,.03-.89c.015-.282.044-.564.074-.861a11.387,11.387,0,0,1,.935-3.561,6.094,6.094,0,0,1,1.855-2.389,4.364,4.364,0,0,1,2.641-.861,4.238,4.238,0,0,1,2.819,1.009,6.514,6.514,0,0,1,1.825,2.879,13.725,13.725,0,0,1,.638,4.466v.475a4.488,4.488,0,0,1-.045.594h-9.3Zm3.695-9.229-1.41-1.246,3.457-5.7,2.092,1.6Z" transform="translate(-310.678 -195.83)" fill="#fff"/><path d="M344.026,206.171a1.571,1.571,0,0,0-1.5-.92,1.839,1.839,0,0,0-1.217.445,2.988,2.988,0,0,0-.831,1.276,5.522,5.522,0,0,0-.3,1.944v9.971H337.69V202.506h2.493v2.522a5.043,5.043,0,0,1,1.306-2.166,2.747,2.747,0,0,1,1.9-.712,2.993,2.993,0,0,1,2.745,1.692,9.634,9.634,0,0,1,.95,4.644v10.4H344.53v-9.971A6.636,6.636,0,0,0,344.026,206.171Z" transform="translate(-306.382 -192.772)" fill="#fff"/><path d="M348.167,218.175a6.828,6.828,0,0,1-1.9-3,13.631,13.631,0,0,1-.668-4.481,13.446,13.446,0,0,1,.683-4.526A6.74,6.74,0,0,1,348.2,203.2a4.394,4.394,0,0,1,2.923-1.054,4.222,4.222,0,0,1,2.849.994,6.359,6.359,0,0,1,1.81,2.864,14.3,14.3,0,0,1,.638,4.511c0,.193,0,.386-.015.608s-.015.371-.03.46h-9.3v-2.641h7.182l-.757,1.632c.044-.148.089-.341.148-.594a2.684,2.684,0,0,0,.074-.623,7.054,7.054,0,0,0-.341-2.285,3.635,3.635,0,0,0-.92-1.5,1.955,1.955,0,0,0-1.365-.534,2.251,2.251,0,0,0-1.617.638,3.957,3.957,0,0,0-1.009,1.855,12.038,12.038,0,0,0-.371,3,11.615,11.615,0,0,0,.341,3.012,4.026,4.026,0,0,0,1.024,1.87,2.272,2.272,0,0,0,1.647.638,2.64,2.64,0,0,0,1.766-.638,4.667,4.667,0,0,0,1.261-1.959l2.137,1.35a7.715,7.715,0,0,1-2.137,3.309,4.715,4.715,0,0,1-3.161,1.1A4.026,4.026,0,0,1,348.167,218.175Z" transform="translate(-302.555 -192.772)" fill="#fff"/><path d="M356.953,218.887H354.49V202.506h2.463Zm2.508-12.939a1.34,1.34,0,0,0-1.766.3,3.135,3.135,0,0,0-.564,1.365,10.312,10.312,0,0,0-.178,2.048l-.831-.742a11.762,11.762,0,0,1,.475-3.472,7,7,0,0,1,1.217-2.4,2.1,2.1,0,0,1,1.558-.89,2.3,2.3,0,0,1,1.083.267,1.992,1.992,0,0,1,.846.95l-1.2,3.235A2.976,2.976,0,0,0,359.461,205.949Z" transform="translate(-298.253 -192.772)" fill="#fff"/><path d="M360.432,206.245a7.4,7.4,0,0,1,2.033-3.012,4.409,4.409,0,0,1,2.923-1.083,4.344,4.344,0,0,1,2.908,1.083,7.446,7.446,0,0,1,2.033,3.012,13.427,13.427,0,0,1,0,8.888,7.5,7.5,0,0,1-2.033,3.027,4.344,4.344,0,0,1-2.908,1.083,4.409,4.409,0,0,1-2.923-1.083,7.218,7.218,0,0,1-2.033-3.027,12.149,12.149,0,0,1-.742-4.437A12.38,12.38,0,0,1,360.432,206.245Zm2.226,7.137a4.451,4.451,0,0,0,1.128,1.81,2.277,2.277,0,0,0,1.617.653,2.388,2.388,0,0,0,1.6-.653,4.417,4.417,0,0,0,1.143-1.81,7.8,7.8,0,0,0,.415-2.686,7.885,7.885,0,0,0-.415-2.7,4.138,4.138,0,0,0-1.143-1.81,2.35,2.35,0,0,0-3.22,0,4.451,4.451,0,0,0-1.128,1.81,8,8,0,0,0-.415,2.7A7.856,7.856,0,0,0,362.658,213.383Z" transform="translate(-295.738 -192.772)" fill="#fff"/></g></g><path d="M397.65,86.7c-12.657-1.024-28.563,5.728-32.362,16.53-3.8-10.8-23.207-17.45-35.864-16.411-33.386,2.715-44.678,39.944-30.537,64.976,7.612,13.473,18.563,25.255,30.507,35.834,10,8.858,35.8,27.643,35.879,27.584.074.059,25.878-18.726,35.879-27.584,11.945-10.58,22.9-22.361,30.507-35.834C445.829,126.752,431.035,89.419,397.65,86.7Z" transform="translate(18.127 12.256)" fill="#fff" stroke="#fff" stroke-miterlimit="10" stroke-width="1"/></g></svg>