<svg xmlns="http://www.w3.org/2000/svg" xmlns:xlink="http://www.w3.org/1999/xlink" width="254" height="251.848" viewBox="0 0 254 251.848"><defs><linearGradient id="a" y1="0.5" x2="1" y2="0.5" gradientUnits="objectBoundingBox"><stop offset="0" stop-color="#565656"/><stop offset="0.191" stop-color="#595959"/><stop offset="0.347" stop-color="#616263"/><stop offset="0.491" stop-color="#707274"/><stop offset="0.627" stop-color="#85898c"/><stop offset="0.758" stop-color="#a1a6ab"/><stop offset="0.883" stop-color="#c1c9d1"/><stop offset="1" stop-color="#e7f1fb"/></linearGradient></defs><g transform="translate(-255.45 -61.27)"><g transform="translate(255.45 61.27)"><g transform="translate(0 8.858)"><path d="M483.765,310.23H277.618a22.17,22.17,0,0,1-22.168-22.168V89.408A22.17,22.17,0,0,1,277.618,67.24H483.78a22.17,22.17,0,0,1,22.168,22.168V288.062A22.193,22.193,0,0,1,483.765,310.23Z" transform="translate(-255.45 -67.24)" fill="url(#a)"/></g><path d="M486.14,300.892H279.978a22.17,22.17,0,0,1-22.168-22.168V83.438A22.17,22.17,0,0,1,279.978,61.27H486.14a22.17,22.17,0,0,1,22.168,22.168V278.723A22.17,22.17,0,0,1,486.14,300.892Z" transform="translate(-254.308 -61.27)" fill="#919191"/><g transform="translate(87.768 198)"><path d="M318.28,213.849a7.579,7.579,0,0,0,2.033,3.086,4.069,4.069,0,0,0,2.73,1.083,4.547,4.547,0,0,0,2.077-.46A6.149,6.149,0,0,0,326.8,216.3a8.84,8.84,0,0,0,1.306-1.8v4.986a7.818,7.818,0,0,1-2.181,1.959,5.873,5.873,0,0,1-2.953.683,6.36,6.36,0,0,1-3.309-.92A8.3,8.3,0,0,1,317,218.538a14.44,14.44,0,0,1-1.766-4.11,20.287,20.287,0,0,1-.638-5.179,19.649,19.649,0,0,1,.638-5.179,14.44,14.44,0,0,1,1.766-4.11,8.45,8.45,0,0,1,2.656-2.671,6.224,6.224,0,0,1,3.309-.92,5.76,5.76,0,0,1,2.953.683,7.431,7.431,0,0,1,2.181,1.959V204a8.841,8.841,0,0,0-1.306-1.8,5.933,5.933,0,0,0-1.677-1.261,4.5,4.5,0,0,0-2.077-.46,4.1,4.1,0,0,0-2.73,1.083,7.824,7.824,0,0,0-2.033,3.057,12.639,12.639,0,0,0-.772,4.644A12.968,12.968,0,0,0,318.28,213.849Z" transform="translate(-314.6 -193.907)" fill="#fff"/><path d="M328.832,215.062a1.577,1.577,0,0,0,1.469.964,1.888,1.888,0,0,0,1.246-.445,2.988,2.988,0,0,0,.831-1.276,5.946,5.946,0,0,0,.3-1.944V202.39h2.478v16.381h-2.478v-2.522a5.269,5.269,0,0,1-1.306,2.152,2.693,2.693,0,0,1-1.9.727,2.976,2.976,0,0,1-2.73-1.706,9.519,9.519,0,0,1-.95-4.629v-10.4h2.552v9.971A6.5,6.5,0,0,0,328.832,215.062Z" transform="translate(-309.186 -190.994)" fill="#fff"/><path d="M336.733,194.71v27.777H334.24V194.71Z" transform="translate(-305.098 -194.71)" fill="#fff"/><path d="M343.079,204.248v3.383H337.07v-3.383Zm-1.766-5.7v22.079h-2.463V198.55Z" transform="translate(-303.729 -192.852)" fill="#fff"/><path d="M345.312,215.062a1.577,1.577,0,0,0,1.469.964,1.888,1.888,0,0,0,1.246-.445,2.987,2.987,0,0,0,.831-1.276,5.945,5.945,0,0,0,.3-1.944V202.39h2.478v16.381h-2.478v-2.522a5.269,5.269,0,0,1-1.306,2.152,2.693,2.693,0,0,1-1.9.727,2.976,2.976,0,0,1-2.73-1.706,9.519,9.519,0,0,1-.95-4.629v-10.4h2.552v9.971A6.054,6.054,0,0,0,345.312,215.062Z" transform="translate(-301.213 -190.994)" fill="#fff"/><path d="M353.183,218.887H350.72V202.506h2.463Zm2.508-12.939a1.34,1.34,0,0,0-1.766.3,3.135,3.135,0,0,0-.564,1.365,10.312,10.312,0,0,0-.178,2.048l-.831-.742a11.762,11.762,0,0,1,.475-3.472,7,7,0,0,1,1.217-2.4,2.1,2.1,0,0,1,1.558-.89,2.3,2.3,0,0,1,1.083.267,1.993,1.993,0,0,1,.846.95l-1.2,3.235A2.975,2.975,0,0,0,355.691,205.949Z" transform="translate(-297.125 -191.11)" fill="#fff"/><path d="M358.59,215.207a1.9,1.9,0,0,0,.7.875,1.832,1.832,0,0,0,1.024.282,2.186,2.186,0,0,0,1.35-.46,3.366,3.366,0,0,0,.994-1.365,5.47,5.47,0,0,0,.386-2.122l.371,2.137a5.192,5.192,0,0,1-.594,2.612,4.079,4.079,0,0,1-1.469,1.573,3.577,3.577,0,0,1-1.81.519,3.141,3.141,0,0,1-1.84-.608,4.143,4.143,0,0,1-1.365-1.781,7.143,7.143,0,0,1-.5-2.849,6.078,6.078,0,0,1,1.083-3.8,3.644,3.644,0,0,1,3.057-1.41,4.26,4.26,0,0,1,1.825.356,4.867,4.867,0,0,1,1.276.831,3.408,3.408,0,0,1,.712.875v1.959a4.635,4.635,0,0,0-1.513-1.143,4.188,4.188,0,0,0-1.706-.356,2.4,2.4,0,0,0-1.261.3,1.884,1.884,0,0,0-.727.831,3.185,3.185,0,0,0-.237,1.321A3.4,3.4,0,0,0,358.59,215.207Zm-2.048-11.129a9.82,9.82,0,0,1,1.855-1.321,5.2,5.2,0,0,1,2.612-.638,4.416,4.416,0,0,1,2.315.608,4.215,4.215,0,0,1,1.573,1.721,5.937,5.937,0,0,1,.579,2.76v11.678h-2.434V207.951a3.825,3.825,0,0,0-.178-1.276,2.2,2.2,0,0,0-.475-.816,1.738,1.738,0,0,0-.712-.46,2.965,2.965,0,0,0-.905-.148,3.7,3.7,0,0,0-1.395.267,4.564,4.564,0,0,0-1.128.638,6.741,6.741,0,0,0-.7.623Z" transform="translate(-294.652 -191.125)" fill="#fff"/></g></g><g transform="translate(298.943 66.798)"><g transform="translate(0 63.713)"><path d="M339.868,121.3c-25.729,5.46-25.744,5.431-53.907,2.552a.866.866,0,0,0-1.187,1.024s2.048,10.965,2.612,13.651c11.307,53.284,49.01,85.676,73.211,80.542Z" transform="translate(-284.761 -101.468)" fill="#66c0d2"/><path d="M321.9,127.767c25.64-5.446,50.3-19.557,50.3-19.557a.868.868,0,0,1,1.5.46s2.582,10.847,3.161,13.547c11.292,53.284-10.016,98.184-34.217,103.318Z" transform="translate(-266.793 -107.934)" fill="#66c0d2"/><path d="M326.159,142.37c-.341-1.632-4.719,2.626-10.936,3.947s-11.93-.8-11.589.846,6.633,6.41,12.85,5.089S326.5,144.017,326.159,142.37Z" transform="translate(-275.637 -91.451)" fill="#dbdbdb"/><path d="M333.245,140.868c-.341-1.632,5.371.475,11.589-.831s10.58-5.579,10.936-3.947-3.457,8.547-9.674,9.867S333.586,142.515,333.245,140.868Z" transform="translate(-261.311 -94.49)" fill="#dbdbdb"/><path d="M359.991,173.511c.594,2.819-10.431-4.036-21.738-1.632s-18.607,13.132-19.2,10.313,5.98-16.93,17.286-19.334S359.382,170.677,359.991,173.511Z" transform="translate(-268.189 -81.535)" fill="#dbdbdb"/></g><g transform="translate(61.394)"><path d="M389.975,90.643C363.519,82.511,338.9,65.358,338.9,65.358a.91.91,0,0,0-1.617.341s-3.739,11.158-4.585,13.948c-16.886,54.961,1.306,104.194,26.278,111.865Z" transform="translate(-326.137 -64.995)" fill="#66c0d2"/><path d="M379.272,82.28c26.456,8.131,56.444,7.76,56.444,7.76a.907.907,0,0,1,1.143,1.187s-3.175,11.336-4.036,14.111c-16.886,54.961-59.59,85.483-84.563,77.811Z" transform="translate(-315.433 -56.633)" fill="#66c0d2"/><path d="M362.247,106.789c-.519,1.692-4.7-3.205-11.129-5.164s-12.627-.282-12.108-1.973,7.567-6.113,13.978-4.14S362.766,105.1,362.247,106.789Z" transform="translate(-319.923 -50.471)" fill="#d8d8d8"/><path d="M369.55,109.042c-.519,1.692,5.7,0,12.108,1.973s10.609,6.855,11.114,5.164-2.834-9.3-9.244-11.277S370.084,107.35,369.55,109.042Z" transform="translate(-305.148 -45.928)" fill="#c4c4c4"/><path d="M383.522,135.525c.92-2.982-11.4,3.413-23.058-.178s-18.266-15.788-19.171-12.805,4.585,18.741,16.248,22.331S382.6,138.507,383.522,135.525Z" transform="translate(-318.852 -37.378)" fill="#dbdbdb"/></g></g></g></svg>