<svg xmlns="http://www.w3.org/2000/svg" xmlns:xlink="http://www.w3.org/1999/xlink" width="254" height="251.848" viewBox="0 0 254 251.848"><defs><linearGradient id="a" y1="0.5" x2="1" y2="0.5" gradientUnits="objectBoundingBox"><stop offset="0" stop-color="#565656"/><stop offset="0.191" stop-color="#595959"/><stop offset="0.347" stop-color="#616263"/><stop offset="0.491" stop-color="#707274"/><stop offset="0.627" stop-color="#85898c"/><stop offset="0.758" stop-color="#a1a6ab"/><stop offset="0.883" stop-color="#c1c9d1"/><stop offset="1" stop-color="#e7f1fb"/></linearGradient></defs><g transform="translate(-255.45 -61.27)"><g transform="translate(255.45 61.27)"><g transform="translate(0 8.858)"><path d="M483.765,310.23H277.618a22.17,22.17,0,0,1-22.168-22.168V89.408A22.17,22.17,0,0,1,277.618,67.24H483.78a22.17,22.17,0,0,1,22.168,22.168V288.062A22.193,22.193,0,0,1,483.765,310.23Z" transform="translate(-255.45 -67.24)" fill="url(#a)"/></g><path d="M486.14,300.891H279.978a22.17,22.17,0,0,1-22.168-22.168V83.438A22.17,22.17,0,0,1,279.978,61.27H486.14a22.17,22.17,0,0,1,22.168,22.168V278.723A22.17,22.17,0,0,1,486.14,300.891Z" transform="translate(-254.308 -61.27)" fill="#919191"/><g transform="translate(79.77 199.425)"><path d="M311.881,196.63v24.928H309.21V196.63Zm-.979,0h8.131v3.71H310.9Zm0,9.749h7.671v3.635H310.9Zm0,11.47h8.131v3.71H310.9Z" transform="translate(-309.21 -195.206)" fill="#fff"/><path d="M320.317,213.407a4.705,4.705,0,0,0,1.187,1.84,2.467,2.467,0,0,0,1.662.683,3.143,3.143,0,0,0,1.454-.356,3.866,3.866,0,0,0,1.217-.994,4.474,4.474,0,0,0,.786-1.424V217.4a3.885,3.885,0,0,1-1.5,1.35,4.527,4.527,0,0,1-5.015-.579,7.381,7.381,0,0,1-2.048-3.027,12.148,12.148,0,0,1-.742-4.437,12.38,12.38,0,0,1,.742-4.451,7.424,7.424,0,0,1,2.048-3.012,4.419,4.419,0,0,1,2.938-1.083,4.3,4.3,0,0,1,2.077.5,3.994,3.994,0,0,1,1.5,1.35v4.244a3.717,3.717,0,0,0-.8-1.439,4.083,4.083,0,0,0-1.232-.979,3.069,3.069,0,0,0-1.424-.356,2.373,2.373,0,0,0-1.662.683,4.555,4.555,0,0,0-1.187,1.855,7.642,7.642,0,0,0-.43,2.7A7.843,7.843,0,0,0,320.317,213.407Z" transform="translate(-305.286 -192.53)" fill="#fff"/><path d="M325.642,206.245a7.4,7.4,0,0,1,2.033-3.012,4.409,4.409,0,0,1,2.923-1.083,4.344,4.344,0,0,1,2.908,1.083,7.446,7.446,0,0,1,2.033,3.012,13.428,13.428,0,0,1,0,8.888,7.5,7.5,0,0,1-2.033,3.027,4.344,4.344,0,0,1-2.908,1.083,4.409,4.409,0,0,1-2.923-1.083,7.218,7.218,0,0,1-2.033-3.027,12.148,12.148,0,0,1-.742-4.437A12.382,12.382,0,0,1,325.642,206.245Zm2.226,7.137a4.451,4.451,0,0,0,1.128,1.81,2.277,2.277,0,0,0,1.617.653,2.388,2.388,0,0,0,1.6-.653,4.417,4.417,0,0,0,1.143-1.81,7.8,7.8,0,0,0,.415-2.686,7.885,7.885,0,0,0-.415-2.7,4.138,4.138,0,0,0-1.143-1.81,2.35,2.35,0,0,0-3.22,0,4.451,4.451,0,0,0-1.128,1.81,8,8,0,0,0-.415,2.7A7.855,7.855,0,0,0,327.868,213.382Z" transform="translate(-301.619 -192.535)" fill="#fff"/><path d="M340.506,206.171a1.571,1.571,0,0,0-1.5-.92,1.839,1.839,0,0,0-1.217.445,2.987,2.987,0,0,0-.831,1.276,5.521,5.521,0,0,0-.3,1.944v9.971H334.17V202.506h2.493v2.522a5.043,5.043,0,0,1,1.306-2.166,2.747,2.747,0,0,1,1.9-.712,2.993,2.993,0,0,1,2.745,1.692,9.634,9.634,0,0,1,.95,4.644v10.4H341.01v-9.971A6.185,6.185,0,0,0,340.506,206.171Z" transform="translate(-297.134 -192.535)" fill="#fff"/><path d="M342.832,209.38a7.4,7.4,0,0,1,2.033-3.012,4.409,4.409,0,0,1,2.923-1.083,4.344,4.344,0,0,1,2.908,1.083,7.446,7.446,0,0,1,2.033,3.012,13.427,13.427,0,0,1,0,8.888A7.5,7.5,0,0,1,350.7,221.3a4.344,4.344,0,0,1-2.908,1.083,4.409,4.409,0,0,1-2.923-1.083,7.218,7.218,0,0,1-2.033-3.027,13.68,13.68,0,0,1,0-8.888Zm2.226,7.137a4.451,4.451,0,0,0,1.128,1.81,2.277,2.277,0,0,0,1.617.653,2.388,2.388,0,0,0,1.6-.653,4.417,4.417,0,0,0,1.143-1.81,7.8,7.8,0,0,0,.416-2.686,7.883,7.883,0,0,0-.416-2.7,4.138,4.138,0,0,0-1.143-1.81,2.35,2.35,0,0,0-3.22,0,4.451,4.451,0,0,0-1.128,1.81,8,8,0,0,0-.415,2.7A7.855,7.855,0,0,0,345.058,216.518Zm2.27-13.9-1.41-1.246,3.457-5.7,2.092,1.6Z" transform="translate(-293.302 -195.67)" fill="#fff"/><path d="M366.515,218.887h-2.493v-9.971a6.853,6.853,0,0,0-.43-2.76,1.4,1.4,0,0,0-1.35-.905,1.6,1.6,0,0,0-1.1.43,2.818,2.818,0,0,0-.742,1.246,6.514,6.514,0,0,0-.267,1.988v9.971h-2.478v-9.971a6.853,6.853,0,0,0-.43-2.76,1.4,1.4,0,0,0-1.35-.905,1.61,1.61,0,0,0-1.113.43,2.674,2.674,0,0,0-.727,1.246,7.049,7.049,0,0,0-.252,1.988v9.971H351.35V202.506h2.433V204.9a4.989,4.989,0,0,1,1.2-2.048,2.5,2.5,0,0,1,1.766-.7,2.713,2.713,0,0,1,1.944.742,4.23,4.23,0,0,1,1.113,2.166,5.424,5.424,0,0,1,1.395-2.166,2.779,2.779,0,0,1,1.914-.742,2.527,2.527,0,0,1,1.87.727,4.412,4.412,0,0,1,1.113,2.152,13.7,13.7,0,0,1,.371,3.457v10.4Z" transform="translate(-288.822 -192.535)" fill="#fff"/><path d="M364.125,197.093a1.36,1.36,0,0,1,1.1-.683,1.293,1.293,0,0,1,1.113.683,2.971,2.971,0,0,1,.445,1.677,3.058,3.058,0,0,1-.445,1.662,1.31,1.31,0,0,1-1.113.7,1.344,1.344,0,0,1-1.1-.7,2.885,2.885,0,0,1-.475-1.662A2.764,2.764,0,0,1,364.125,197.093Zm2.315,8.191v16.381h-2.433V205.283Z" transform="translate(-282.871 -195.312)" fill="#fff"/><path d="M370.227,213.407a4.706,4.706,0,0,0,1.187,1.84,2.467,2.467,0,0,0,1.662.683,3.143,3.143,0,0,0,1.454-.356,3.866,3.866,0,0,0,1.217-.994,4.473,4.473,0,0,0,.786-1.424V217.4a3.885,3.885,0,0,1-1.5,1.35,4.527,4.527,0,0,1-5.015-.579,7.381,7.381,0,0,1-2.048-3.027,12.148,12.148,0,0,1-.742-4.437,12.382,12.382,0,0,1,.742-4.451,7.424,7.424,0,0,1,2.048-3.012,4.419,4.419,0,0,1,2.938-1.083,4.3,4.3,0,0,1,2.077.5,3.993,3.993,0,0,1,1.5,1.35v4.244a3.716,3.716,0,0,0-.8-1.439,4.083,4.083,0,0,0-1.232-.979,3.069,3.069,0,0,0-1.424-.356,2.373,2.373,0,0,0-1.662.683,4.554,4.554,0,0,0-1.187,1.855,7.641,7.641,0,0,0-.43,2.7A7.189,7.189,0,0,0,370.227,213.407Z" transform="translate(-281.139 -192.53)" fill="#fff"/><path d="M375.552,206.245a7.4,7.4,0,0,1,2.033-3.012,4.409,4.409,0,0,1,2.923-1.083,4.344,4.344,0,0,1,2.908,1.083,7.446,7.446,0,0,1,2.033,3.012,13.427,13.427,0,0,1,0,8.888,7.5,7.5,0,0,1-2.033,3.027,4.344,4.344,0,0,1-2.908,1.083,4.409,4.409,0,0,1-2.923-1.083,7.219,7.219,0,0,1-2.033-3.027,12.15,12.15,0,0,1-.742-4.437A11.769,11.769,0,0,1,375.552,206.245Zm2.211,7.137a4.451,4.451,0,0,0,1.128,1.81,2.277,2.277,0,0,0,1.617.653,2.388,2.388,0,0,0,1.6-.653,4.417,4.417,0,0,0,1.143-1.81,7.8,7.8,0,0,0,.415-2.686,7.885,7.885,0,0,0-.415-2.7,4.138,4.138,0,0,0-1.143-1.81,2.35,2.35,0,0,0-3.22,0,4.451,4.451,0,0,0-1.128,1.81,8,8,0,0,0-.415,2.7A8.234,8.234,0,0,0,377.763,213.382Z" transform="translate(-277.472 -192.535)" fill="#fff"/></g></g><g transform="translate(339.953 82.993)"><path d="M325.74,197.2a57.611,57.611,0,0,0,24.216,10.936v7.345a8.375,8.375,0,0,0,8.369,8.354h10.357a8.375,8.375,0,0,0,8.369-8.354v-7.33a55.28,55.28,0,0,0,20.432-7.879c10.416-6.885,15.818-16.515,16.055-28.608a28.936,28.936,0,0,0-6.469-19.646c-6.588-7.864-16.678-12.969-30-15.224V124.327a32.654,32.654,0,0,1,2.612,2.033,10.069,10.069,0,0,0,6.558,2.374,11.058,11.058,0,0,0,4.674-1.276c.119-.059.237-.119.341-.178l11.618-7.286a7.159,7.159,0,0,0,3.695-6.084,6.906,6.906,0,0,0-2.285-5.223,49.188,49.188,0,0,0-27.213-15.669v-8.74A8.378,8.378,0,0,0,368.7,75.91H358.339a8.378,8.378,0,0,0-8.369,8.369v8.369a53.9,53.9,0,0,0-12.924,3.917c-14.942,6.8-22.376,17.212-22.124,30.967a30.18,30.18,0,0,0,6.113,18.028c6.1,8.191,15.832,13.562,28.934,15.981V179.48a42.614,42.614,0,0,1-11.856-9.244,8.177,8.177,0,0,0-6.647-3.19,12.321,12.321,0,0,0-4.184,1.128l-.178.089a1.073,1.073,0,0,0-.134.074l-10.55,6.188a7.136,7.136,0,0,0-2.2,11.188A55.855,55.855,0,0,0,325.74,197.2Zm-6.6-18,10.431-6.113a10.056,10.056,0,0,1,1.884-.623,2.811,2.811,0,0,1,2.434,1.172,1.784,1.784,0,0,0,.163.178c5.49,5.95,11.455,10.1,17.732,12.316a2.709,2.709,0,0,0,3.621-2.552V159.226a2.725,2.725,0,0,0-2.3-2.686c-12.805-1.973-22.124-6.766-27.718-14.259a24.607,24.607,0,0,1-5.03-14.868c-.223-11.544,5.98-20.017,18.948-25.922a49.613,49.613,0,0,1,13.755-3.858,2.729,2.729,0,0,0,2.344-2.686V84.264a2.945,2.945,0,0,1,2.938-2.938H368.7a2.945,2.945,0,0,1,2.938,2.938v10.98a2.708,2.708,0,0,0,2.255,2.671,44.29,44.29,0,0,1,26.4,14.452,1.371,1.371,0,0,0,.208.208,1.577,1.577,0,0,1,.638,1.232c0,.282-.015.861-1.157,1.588l-11.485,7.2a7.122,7.122,0,0,1-2.226.712h0a4.677,4.677,0,0,1-3.072-1.083,34.3,34.3,0,0,0-7.671-5.06,2.686,2.686,0,0,0-2.612.163,2.72,2.72,0,0,0-1.261,2.285v19.5a2.7,2.7,0,0,0,2.344,2.686c13.117,1.84,22.851,6.44,28.92,13.681,3.635,4.392,5.342,9.645,5.208,16.055-.208,10.342-4.659,18.266-13.607,24.186a50.738,50.738,0,0,1-20.551,7.434,2.7,2.7,0,0,0-2.315,2.686v9.63a2.932,2.932,0,0,1-2.938,2.923H358.354a2.932,2.932,0,0,1-2.938-2.923v-9.615a2.712,2.712,0,0,0-2.285-2.686,52.491,52.491,0,0,1-24.053-10.3,49.944,49.944,0,0,1-10.491-10.446c-.059-.074-.119-.163-.178-.223a1.82,1.82,0,0,1-.549-1.232C317.8,180.623,317.8,179.97,319.137,179.2Z" transform="translate(-312.4 -75.91)" fill="#66c0d2"/><path d="M345.376,105.894a2.715,2.715,0,0,0-3.71-2.522l-.8.312c-.059.03-.119.045-.193.074-6.291,3.012-7.6,7.419-7.582,10.594v.015c.03,3.68,1.543,8.651,8.576,11.351a2.759,2.759,0,0,0,2.523-.3,2.686,2.686,0,0,0,1.172-2.241V105.894Zm-5.431,12.4a5.754,5.754,0,0,1-1.41-3.977,4.836,4.836,0,0,1,1.41-3.546Z" transform="translate(-302.39 -62.715)" fill="#66c0d2"/><path d="M353.561,158.356a2.734,2.734,0,0,0,1.469.43,2.5,2.5,0,0,0,1.128-.252,21.241,21.241,0,0,0,2.552-1.335,14.438,14.438,0,0,0,7.4-12.657c.03-4.184-1.721-9.719-10.283-12.42a2.661,2.661,0,0,0-2.419.4,2.706,2.706,0,0,0-1.113,2.2v21.367A2.787,2.787,0,0,0,353.561,158.356Zm4.184-19.453A6.1,6.1,0,0,1,360.7,144.5a8.593,8.593,0,0,1-2.953,6.707Z" transform="translate(-293.096 -48.776)" fill="#66c0d2"/></g></g></svg>