<svg xmlns="http://www.w3.org/2000/svg" xmlns:xlink="http://www.w3.org/1999/xlink" width="254" height="251.848" viewBox="0 0 254 251.848"><defs><linearGradient id="a" y1="0.5" x2="1" y2="0.5" gradientUnits="objectBoundingBox"><stop offset="0" stop-color="#565656"/><stop offset="0.191" stop-color="#595959"/><stop offset="0.347" stop-color="#616263"/><stop offset="0.491" stop-color="#707274"/><stop offset="0.627" stop-color="#85898c"/><stop offset="0.758" stop-color="#a1a6ab"/><stop offset="0.883" stop-color="#c1c9d1"/><stop offset="1" stop-color="#e7f1fb"/></linearGradient></defs><g transform="translate(-255.45 -61.27)" opacity="0.96"><g transform="translate(255.45 61.27)"><g transform="translate(0 8.858)"><path d="M483.765,310.23H277.618a22.17,22.17,0,0,1-22.168-22.168V89.408A22.17,22.17,0,0,1,277.618,67.24H483.78a22.17,22.17,0,0,1,22.168,22.168V288.062A22.193,22.193,0,0,1,483.765,310.23Z" transform="translate(-255.45 -67.24)" fill="url(#a)"/></g><path d="M486.14,300.891H279.978a22.17,22.17,0,0,1-22.168-22.168V83.438A22.17,22.17,0,0,1,279.978,61.27H486.14a22.17,22.17,0,0,1,22.168,22.168V278.723A22.17,22.17,0,0,1,486.14,300.891Z" transform="translate(-254.308 -61.27)" fill="#919191"/><g transform="translate(70.867 198)"><path d="M305.955,196.63v24.928H303.21V196.63Z" transform="translate(-303.21 -193.781)" fill="#fff"/><path d="M313.676,206.171a1.571,1.571,0,0,0-1.5-.92,1.839,1.839,0,0,0-1.217.445,2.988,2.988,0,0,0-.831,1.276,5.522,5.522,0,0,0-.3,1.944v9.971H307.34V202.506h2.493v2.522a5.043,5.043,0,0,1,1.306-2.166,2.747,2.747,0,0,1,1.9-.712,2.993,2.993,0,0,1,2.745,1.692,9.634,9.634,0,0,1,.95,4.644v10.4H314.18v-9.971A6.635,6.635,0,0,0,313.676,206.171Z" transform="translate(-301.212 -191.11)" fill="#fff"/><path d="M317.608,214.985a3.691,3.691,0,0,0,1.053.92,2.07,2.07,0,0,0,1.054.3,1.281,1.281,0,0,0,1.053-.46,1.983,1.983,0,0,0,.386-1.276,2.479,2.479,0,0,0-.3-1.232,2.777,2.777,0,0,0-.831-.89,14.317,14.317,0,0,0-1.246-.772,10.775,10.775,0,0,1-1.41-1.009,4.635,4.635,0,0,1-1.157-1.543,5.772,5.772,0,0,1-.445-2.419,5.654,5.654,0,0,1,.49-2.493,3.354,3.354,0,0,1,1.335-1.484,3.514,3.514,0,0,1,1.81-.475,3.729,3.729,0,0,1,1.647.386,5.26,5.26,0,0,1,1.395,1.039,6.39,6.39,0,0,1,1.054,1.454l-1.38,2.285a5.606,5.606,0,0,0-1.261-1.573,2.3,2.3,0,0,0-1.513-.608,1.175,1.175,0,0,0-.875.356,1.459,1.459,0,0,0-.341,1.039,1.7,1.7,0,0,0,.312,1.009,3.3,3.3,0,0,0,.831.8c.341.237.727.49,1.157.742a12.854,12.854,0,0,1,1.617,1.172,4.841,4.841,0,0,1,1.187,1.573,5.633,5.633,0,0,1,.445,2.419,6.187,6.187,0,0,1-1.024,3.724,3.257,3.257,0,0,1-2.775,1.41,3.975,3.975,0,0,1-1.988-.519,5.534,5.534,0,0,1-1.588-1.35,9.7,9.7,0,0,1-1.143-1.766l1.454-2.241A9.207,9.207,0,0,0,317.608,214.985Z" transform="translate(-297.428 -191.11)" fill="#fff"/><path d="M327.389,204.248v3.383H321.38v-3.383Zm-1.781-5.7v22.079h-2.463V198.55Z" transform="translate(-294.419 -192.852)" fill="#fff"/><path d="M326.985,197.093a1.36,1.36,0,0,1,1.1-.683,1.293,1.293,0,0,1,1.113.683,2.971,2.971,0,0,1,.445,1.677,3.058,3.058,0,0,1-.445,1.662,1.31,1.31,0,0,1-1.113.7,1.344,1.344,0,0,1-1.1-.7,2.885,2.885,0,0,1-.475-1.662A2.98,2.98,0,0,1,326.985,197.093Zm2.315,8.191v16.381h-2.434V205.283Z" transform="translate(-291.937 -193.887)" fill="#fff"/><path d="M335.719,204.248v3.383H329.71v-3.383Zm-1.781-5.7v22.079h-2.463V198.55Z" transform="translate(-290.389 -192.852)" fill="#fff"/><path d="M337.952,215.062a1.577,1.577,0,0,0,1.469.964,1.888,1.888,0,0,0,1.246-.445,2.987,2.987,0,0,0,.831-1.276,5.945,5.945,0,0,0,.3-1.944V202.39h2.478v16.381h-2.478v-2.522a5.269,5.269,0,0,1-1.306,2.152,2.693,2.693,0,0,1-1.9.727,2.976,2.976,0,0,1-2.73-1.706,9.519,9.519,0,0,1-.95-4.629v-10.4h2.552v9.971A6.055,6.055,0,0,0,337.952,215.062Z" transform="translate(-287.873 -190.994)" fill="#fff"/><path d="M345.747,213.407a4.706,4.706,0,0,0,1.187,1.84,2.467,2.467,0,0,0,1.662.683,3.143,3.143,0,0,0,1.454-.356,3.865,3.865,0,0,0,1.217-.994,4.474,4.474,0,0,0,.786-1.424V217.4a3.885,3.885,0,0,1-1.5,1.35,4.527,4.527,0,0,1-5.015-.579,7.381,7.381,0,0,1-2.048-3.027,12.149,12.149,0,0,1-.742-4.437,12.381,12.381,0,0,1,.742-4.451,7.425,7.425,0,0,1,2.048-3.012,4.419,4.419,0,0,1,2.938-1.083,4.3,4.3,0,0,1,2.077.5,3.993,3.993,0,0,1,1.5,1.35v4.244a3.715,3.715,0,0,0-.8-1.439,4.083,4.083,0,0,0-1.232-.979,3.07,3.07,0,0,0-1.424-.356,2.373,2.373,0,0,0-1.662.683,4.556,4.556,0,0,0-1.187,1.855,7.642,7.642,0,0,0-.43,2.7A7.843,7.843,0,0,0,345.747,213.407Z" transform="translate(-284.08 -191.106)" fill="#fff"/><path d="M351.285,197.093a1.36,1.36,0,0,1,1.1-.683,1.293,1.293,0,0,1,1.113.683,2.971,2.971,0,0,1,.445,1.677,3.059,3.059,0,0,1-.445,1.662,1.31,1.31,0,0,1-1.113.7,1.344,1.344,0,0,1-1.1-.7,2.885,2.885,0,0,1-.475-1.662A2.764,2.764,0,0,1,351.285,197.093Zm2.315,8.191v16.381h-2.434V205.283Z" transform="translate(-280.18 -193.887)" fill="#fff"/><path d="M355.2,206.245a7.4,7.4,0,0,1,2.033-3.012,4.409,4.409,0,0,1,2.923-1.083,4.344,4.344,0,0,1,2.908,1.083,7.446,7.446,0,0,1,2.033,3.012,13.427,13.427,0,0,1,0,8.888,7.5,7.5,0,0,1-2.033,3.027,4.344,4.344,0,0,1-2.908,1.083,4.409,4.409,0,0,1-2.923-1.083,7.218,7.218,0,0,1-2.033-3.027,12.149,12.149,0,0,1-.742-4.437A11.768,11.768,0,0,1,355.2,206.245Zm2.211,7.137a4.451,4.451,0,0,0,1.128,1.81,2.277,2.277,0,0,0,1.617.653,2.388,2.388,0,0,0,1.6-.653,4.416,4.416,0,0,0,1.143-1.81,7.8,7.8,0,0,0,.415-2.686,7.885,7.885,0,0,0-.415-2.7,4.138,4.138,0,0,0-1.143-1.81,2.35,2.35,0,0,0-3.22,0,4.451,4.451,0,0,0-1.128,1.81,8,8,0,0,0-.415,2.7A8.231,8.231,0,0,0,357.413,213.382Z" transform="translate(-278.415 -191.11)" fill="#fff"/><path d="M370.066,206.171a1.571,1.571,0,0,0-1.5-.92,1.839,1.839,0,0,0-1.217.445,2.988,2.988,0,0,0-.831,1.276,5.522,5.522,0,0,0-.3,1.944v9.971H363.73V202.506h2.493v2.522a5.043,5.043,0,0,1,1.306-2.166,2.747,2.747,0,0,1,1.9-.712,2.993,2.993,0,0,1,2.745,1.692,9.634,9.634,0,0,1,.95,4.644v10.4H370.57v-9.971A6.636,6.636,0,0,0,370.066,206.171Z" transform="translate(-273.929 -191.11)" fill="#fff"/><path d="M374.31,215.207a1.9,1.9,0,0,0,.7.875,1.831,1.831,0,0,0,1.024.282,2.187,2.187,0,0,0,1.35-.46,3.366,3.366,0,0,0,.994-1.365,5.47,5.47,0,0,0,.386-2.122l.371,2.137a5.191,5.191,0,0,1-.594,2.612,4.079,4.079,0,0,1-1.469,1.573,3.577,3.577,0,0,1-1.81.519,3.142,3.142,0,0,1-1.84-.608,4.144,4.144,0,0,1-1.365-1.781,7.141,7.141,0,0,1-.5-2.849,6.078,6.078,0,0,1,1.083-3.8,3.644,3.644,0,0,1,3.057-1.41,4.259,4.259,0,0,1,1.825.356,4.867,4.867,0,0,1,1.276.831,3.409,3.409,0,0,1,.712.875v1.959a4.635,4.635,0,0,0-1.513-1.143,4.187,4.187,0,0,0-1.706-.356,2.4,2.4,0,0,0-1.261.3,1.884,1.884,0,0,0-.727.831,3.185,3.185,0,0,0-.237,1.321A3.4,3.4,0,0,0,374.31,215.207Zm-2.048-11.129a9.821,9.821,0,0,1,1.855-1.321,5.2,5.2,0,0,1,2.612-.638,4.415,4.415,0,0,1,2.315.608,4.215,4.215,0,0,1,1.573,1.721,5.937,5.937,0,0,1,.579,2.76v11.678h-2.433V207.951a3.826,3.826,0,0,0-.178-1.276,2.2,2.2,0,0,0-.475-.816,1.738,1.738,0,0,0-.712-.46,2.966,2.966,0,0,0-.905-.148,3.7,3.7,0,0,0-1.395.267,4.564,4.564,0,0,0-1.128.638,6.741,6.741,0,0,0-.7.623Z" transform="translate(-270.146 -191.125)" fill="#fff"/><path d="M382.493,194.71v27.777H380V194.71Z" transform="translate(-266.058 -194.71)" fill="#fff"/></g></g><g transform="translate(297.817 77.321)"><path d="M287.59,133.417H456.537a3.581,3.581,0,0,0,1.6-6.781L373.977,72.655a3.587,3.587,0,0,0-3.873,0l-84.459,54.159a3.588,3.588,0,0,0,1.944,6.6Zm84.459-53.492L444.3,126.251H299.816Z" transform="translate(-284.003 -72.087)" fill="#66c0d2"/><path d="M440.154,125.1a3.576,3.576,0,0,0,0-7.152H296.016a3.576,3.576,0,1,0,0,7.152h6.9v71.475h-6.9a3.576,3.576,0,1,0,0,7.152H440.154a3.576,3.576,0,0,0,0-7.152h-7.107V125.1ZM316.493,196.577h-6.41V125.1h6.41Zm22.88,0H323.645V125.1h15.728Zm13.577,0h-6.41V125.1h6.41Zm22.9,0H360.117V125.1h15.728Zm13.577,0h-6.41V125.1h6.41Zm22.88,0H396.574V125.1H412.3Zm13.577,0h-6.41V125.1h6.41Z" transform="translate(-279.921 -49.898)" fill="#66c0d2"/><path d="M459.842,182.216a3.578,3.578,0,0,0-3.576-3.576H287.586a3.576,3.576,0,0,0,0,7.152h168.68A3.578,3.578,0,0,0,459.842,182.216Z" transform="translate(-283.999 -20.536)" fill="#66c0d2"/></g></g></svg>