<svg xmlns="http://www.w3.org/2000/svg" xmlns:xlink="http://www.w3.org/1999/xlink" width="251.068" height="248.941" viewBox="0 0 251.068 248.941"><defs><linearGradient id="a" y1="0.5" x2="1" y2="0.5" gradientUnits="objectBoundingBox"><stop offset="0" stop-color="#565656"/><stop offset="0.191" stop-color="#595959"/><stop offset="0.347" stop-color="#616263"/><stop offset="0.491" stop-color="#707274"/><stop offset="0.627" stop-color="#85898c"/><stop offset="0.758" stop-color="#a1a6ab"/><stop offset="0.883" stop-color="#c1c9d1"/><stop offset="1" stop-color="#e7f1fb"/></linearGradient></defs><g transform="translate(-255.45 -61.27)"><g transform="translate(255.45 61.27)"><g transform="translate(0 8.756)"><path d="M481.129,307.425H277.362a21.914,21.914,0,0,1-21.912-21.912V89.152A21.914,21.914,0,0,1,277.362,67.24H481.144a21.914,21.914,0,0,1,21.912,21.912v196.36A21.936,21.936,0,0,1,481.129,307.425Z" transform="translate(-255.45 -67.24)" fill="url(#a)"/></g><path d="M483.5,298.126H279.722a21.914,21.914,0,0,1-21.912-21.912V83.182A21.914,21.914,0,0,1,279.722,61.27H483.5a21.914,21.914,0,0,1,21.912,21.912V276.213A21.914,21.914,0,0,1,483.5,298.126Z" transform="translate(-254.349 -61.27)" fill="#919191"/><g transform="translate(77.94 195.29)"><path d="M317.082,208.518h7.671a23.019,23.019,0,0,1-.455,5.119,16.179,16.179,0,0,1-1.5,4.283,8.37,8.37,0,0,1-2.493,2.933,5.633,5.633,0,0,1-3.373,1.071,6.214,6.214,0,0,1-3.329-.939,8.638,8.638,0,0,1-2.655-2.655,13.794,13.794,0,0,1-1.745-4.077,20.458,20.458,0,0,1-.616-5.177,19.684,19.684,0,0,1,.631-5.163,13.793,13.793,0,0,1,1.76-4.048,8.376,8.376,0,0,1,2.655-2.625,6.57,6.57,0,0,1,6.175-.264,7.408,7.408,0,0,1,2.288,1.863,11.124,11.124,0,0,1,1.716,2.933l-2.185,2.259a7.072,7.072,0,0,0-1.833-2.816,4.2,4.2,0,0,0-5.632.059,7.771,7.771,0,0,0-2.009,3.095,13.3,13.3,0,0,0-.748,4.693,13.833,13.833,0,0,0,.733,4.693,7.734,7.734,0,0,0,1.995,3.153,4.124,4.124,0,0,0,2.816,1.129,3.86,3.86,0,0,0,1.907-.455,4.369,4.369,0,0,0,1.452-1.305,8.357,8.357,0,0,0,1.027-1.936,11.694,11.694,0,0,0,.616-2.317h-4.884v-3.505Z" transform="translate(-308.59 -193.529)" fill="#fff"/><path d="M323.337,217.99a6.749,6.749,0,0,1-1.877-2.963,13.473,13.473,0,0,1-.66-4.429,13.29,13.29,0,0,1,.675-4.473,6.662,6.662,0,0,1,1.892-2.933,4.343,4.343,0,0,1,2.889-1.041,4.174,4.174,0,0,1,2.816.983,6.285,6.285,0,0,1,1.789,2.831,14.137,14.137,0,0,1,.631,4.459c0,.191,0,.381-.015.6s-.015.367-.029.455h-9.2v-2.611h7.1l-.748,1.613c.044-.147.088-.337.147-.587a2.654,2.654,0,0,0,.073-.616,6.972,6.972,0,0,0-.337-2.259,3.593,3.593,0,0,0-.909-1.481,1.932,1.932,0,0,0-1.349-.528,2.225,2.225,0,0,0-1.6.631,3.912,3.912,0,0,0-1,1.833,11.9,11.9,0,0,0-.367,2.963,11.481,11.481,0,0,0,.337,2.977,3.98,3.98,0,0,0,1.012,1.848,2.246,2.246,0,0,0,1.628.631,2.609,2.609,0,0,0,1.745-.631,4.613,4.613,0,0,0,1.247-1.936l2.112,1.335a7.627,7.627,0,0,1-2.112,3.271,4.661,4.661,0,0,1-3.124,1.085A3.979,3.979,0,0,1,323.337,217.99Z" transform="translate(-302.892 -190.813)" fill="#fff"/><path d="M329.883,206.2a7.316,7.316,0,0,1,2.009-2.977,4.358,4.358,0,0,1,2.889-1.071,4.294,4.294,0,0,1,2.875,1.071,7.36,7.36,0,0,1,2.009,2.977,13.272,13.272,0,0,1,0,8.785,7.416,7.416,0,0,1-2.009,2.992,4.294,4.294,0,0,1-2.875,1.071,4.358,4.358,0,0,1-2.889-1.071,7.135,7.135,0,0,1-2.009-2.992,12.009,12.009,0,0,1-.733-4.385A12.239,12.239,0,0,1,329.883,206.2Zm2.2,7.055a4.4,4.4,0,0,0,1.115,1.789,2.251,2.251,0,0,0,1.6.645,2.361,2.361,0,0,0,1.584-.645,4.366,4.366,0,0,0,1.129-1.789,7.707,7.707,0,0,0,.411-2.655,7.794,7.794,0,0,0-.411-2.669,4.091,4.091,0,0,0-1.129-1.789,2.323,2.323,0,0,0-3.183,0,4.4,4.4,0,0,0-1.115,1.789,7.911,7.911,0,0,0-.411,2.669A7.764,7.764,0,0,0,332.083,213.253Z" transform="translate(-298.995 -190.813)" fill="#fff"/><path d="M338.584,205.963a6.792,6.792,0,0,1,1.877-2.831,3.8,3.8,0,0,1,2.508-.983,3.19,3.19,0,0,1,2.317,1,6.943,6.943,0,0,1,1.569,2.875,15.457,15.457,0,0,1,.587,4.5,14.9,14.9,0,0,1-.587,4.473,6.943,6.943,0,0,1-1.569,2.875,3.134,3.134,0,0,1-2.317,1,3.8,3.8,0,0,1-2.508-.983,6.848,6.848,0,0,1-1.877-2.845,12.788,12.788,0,0,1-.7-4.5A12.938,12.938,0,0,1,338.584,205.963Zm1.936,13.816a5.216,5.216,0,0,0,.4,1.965,3.343,3.343,0,0,0,1.041,1.379,2.534,2.534,0,0,0,1.525.5,2.391,2.391,0,0,0,1.481-.557,3.97,3.97,0,0,0,1.144-1.731,8.592,8.592,0,0,0,.44-2.992V202.5h2.405v15.84a13,13,0,0,1-.763,4.825A6.492,6.492,0,0,1,346.2,226a4.346,4.346,0,0,1-2.655.939,4.731,4.731,0,0,1-2.919-.895,5.594,5.594,0,0,1-1.848-2.523,10.736,10.736,0,0,1-.689-3.725h2.435Zm.337-6.512a4.04,4.04,0,0,0,1.144,1.7,2.475,2.475,0,0,0,1.555.587,2.228,2.228,0,0,0,1.393-.557,4.08,4.08,0,0,0,1.144-1.7,7.711,7.711,0,0,0,.44-2.757,8.071,8.071,0,0,0-.264-2.2,6.067,6.067,0,0,0-.689-1.584,3.038,3.038,0,0,0-.968-.968,2.1,2.1,0,0,0-1.056-.323,2.366,2.366,0,0,0-1.555.587,3.789,3.789,0,0,0-1.144,1.7,8.012,8.012,0,0,0-.425,2.787A7.893,7.893,0,0,0,340.857,213.267Z" transform="translate(-294.921 -190.813)" fill="#fff"/><path d="M349.955,218.694H347.52V202.5h2.435Zm2.479-12.789a1.325,1.325,0,0,0-1.745.293,3.1,3.1,0,0,0-.557,1.349,10.191,10.191,0,0,0-.176,2.024l-.821-.733a11.627,11.627,0,0,1,.469-3.432,6.921,6.921,0,0,1,1.2-2.376,2.077,2.077,0,0,1,1.54-.88,2.268,2.268,0,0,1,1.071.264,1.969,1.969,0,0,1,.836.939l-1.188,3.2A3.306,3.306,0,0,0,352.433,205.9Z" transform="translate(-290.422 -190.813)" fill="#fff"/><path d="M355.348,215.056a1.875,1.875,0,0,0,.689.865,1.811,1.811,0,0,0,1.012.279,2.161,2.161,0,0,0,1.335-.455,3.327,3.327,0,0,0,.983-1.349,5.406,5.406,0,0,0,.381-2.1l.367,2.112a5.131,5.131,0,0,1-.587,2.581,4.032,4.032,0,0,1-1.452,1.555,3.536,3.536,0,0,1-1.789.513,3.105,3.105,0,0,1-1.819-.6,4.1,4.1,0,0,1-1.349-1.76,7.06,7.06,0,0,1-.5-2.816,6.008,6.008,0,0,1,1.071-3.755,3.6,3.6,0,0,1,3.021-1.393,4.21,4.21,0,0,1,1.8.352,4.81,4.81,0,0,1,1.261.821,3.368,3.368,0,0,1,.7.865v1.936a4.582,4.582,0,0,0-1.5-1.129,4.139,4.139,0,0,0-1.687-.352,2.375,2.375,0,0,0-1.247.293,1.862,1.862,0,0,0-.719.821,3.149,3.149,0,0,0-.235,1.305A3.608,3.608,0,0,0,355.348,215.056Zm-2.024-11a9.706,9.706,0,0,1,1.833-1.305,5.14,5.14,0,0,1,2.581-.631,4.364,4.364,0,0,1,2.288.6,4.166,4.166,0,0,1,1.555,1.7,5.867,5.867,0,0,1,.572,2.728v11.543h-2.405v-10.81a3.781,3.781,0,0,0-.176-1.261,2.169,2.169,0,0,0-.469-.807,1.718,1.718,0,0,0-.7-.455,2.933,2.933,0,0,0-.895-.147,3.66,3.66,0,0,0-1.379.264,4.513,4.513,0,0,0-1.115.631,6.67,6.67,0,0,0-.689.616Z" transform="translate(-288.042 -190.826)" fill="#fff"/><path d="M366.493,206.109v3.344H360.48v-3.344Zm-.792-7.92a1.094,1.094,0,0,0-.587-.176.728.728,0,0,0-.587.279,2.312,2.312,0,0,0-.381.909,8.384,8.384,0,0,0-.132,1.657V222.3h-2.405V200.125a10.661,10.661,0,0,1,.4-3.153,4.125,4.125,0,0,1,1.144-1.907A2.682,2.682,0,0,1,365,194.42a2.262,2.262,0,0,1,1.071.249,2.972,2.972,0,0,1,.792.6,3.061,3.061,0,0,1,.513.7l-1.159,2.963A1.413,1.413,0,0,0,365.7,198.189Z" transform="translate(-284.374 -194.42)" fill="#fff"/><path d="M367.073,202.534,365.68,201.3l3.417-5.632,2.068,1.584Zm1.54,2.992v16.192h-2.405V205.526Z" transform="translate(-281.947 -193.837)" fill="#fff"/><path d="M372.088,215.056a1.875,1.875,0,0,0,.689.865,1.81,1.81,0,0,0,1.012.279,2.161,2.161,0,0,0,1.335-.455,3.327,3.327,0,0,0,.983-1.349,5.406,5.406,0,0,0,.381-2.1l.367,2.112a5.131,5.131,0,0,1-.587,2.581,4.032,4.032,0,0,1-1.452,1.555,3.536,3.536,0,0,1-1.789.513,3.105,3.105,0,0,1-1.819-.6,4.1,4.1,0,0,1-1.349-1.76,7.06,7.06,0,0,1-.5-2.816,6.008,6.008,0,0,1,1.071-3.755,3.6,3.6,0,0,1,3.021-1.393,4.21,4.21,0,0,1,1.8.352,4.811,4.811,0,0,1,1.261.821,3.37,3.37,0,0,1,.7.865v1.936a4.582,4.582,0,0,0-1.5-1.129,4.139,4.139,0,0,0-1.687-.352,2.375,2.375,0,0,0-1.247.293,1.862,1.862,0,0,0-.719.821,3.149,3.149,0,0,0-.235,1.305A3.359,3.359,0,0,0,372.088,215.056Zm-2.024-11a9.706,9.706,0,0,1,1.833-1.305,5.14,5.14,0,0,1,2.581-.631,4.364,4.364,0,0,1,2.288.6,4.166,4.166,0,0,1,1.555,1.7,5.868,5.868,0,0,1,.572,2.728v11.543h-2.405v-10.81a3.782,3.782,0,0,0-.176-1.261,2.169,2.169,0,0,0-.469-.807,1.718,1.718,0,0,0-.7-.455,2.933,2.933,0,0,0-.895-.147,3.66,3.66,0,0,0-1.379.264,4.512,4.512,0,0,0-1.115.631,6.665,6.665,0,0,0-.689.616Z" transform="translate(-280.229 -190.826)" fill="#fff"/></g></g><g transform="translate(324.985 90.019)"><path d="M407.349,131.422a47.895,47.895,0,1,0-47.887,47.9A47.929,47.929,0,0,0,407.349,131.422Zm-4.943,0a42.431,42.431,0,0,1-.484,6.453,74.3,74.3,0,0,1-21.531,10.443,50.111,50.111,0,0,0,1.071-6.336c.953-9.768-1.027-19.272-4.092-27.632a62.637,62.637,0,0,0,17.322-7.48A42.929,42.929,0,0,1,402.407,131.422ZM379,141.748a46.431,46.431,0,0,1-1.32,7.3,62.222,62.222,0,0,1-36.169-2.3c-.308-.117-.6-.235-.909-.352-.308-1.511-.543-3.065-.7-4.635-.968-9.929,1.305-19.7,4.664-28.19a64.763,64.763,0,0,0,18.1,2.655,58.658,58.658,0,0,0,12.217-1.276C377.928,123.106,379.922,132.346,379,141.748Zm13.655-37.577c.191.235.367.469.557.7a60.243,60.243,0,0,1-16.735,7.143,104.63,104.63,0,0,0-13.332-23.379A42.8,42.8,0,0,1,392.653,104.171ZM359.447,88.463c.147,0,.279.015.425.015a105.15,105.15,0,0,1,14.08,24.127,59.587,59.587,0,0,1-28.468-1.32,106.873,106.873,0,0,1,13.523-22.807C359.169,88.477,359.315,88.463,359.447,88.463Zm-3.7.176a105.339,105.339,0,0,0-12.7,21.883,70.8,70.8,0,0,1-15.84-7.451A42.682,42.682,0,0,1,355.751,88.639ZM316.5,131.422a43.04,43.04,0,0,1,9.123-26.444,72.714,72.714,0,0,0,16.5,7.832c-3.4,8.727-5.691,18.788-4.679,29.172.117,1.129.279,2.229.455,3.329a81.386,81.386,0,0,1-21.384-13.288C316.517,131.818,316.5,131.613,316.5,131.422Zm.191,4a82.668,82.668,0,0,0,21.795,12.79c2.259,9.651,7.509,18.3,15.723,25.828A43.011,43.011,0,0,1,316.693,135.426Zm42.754,38.941c-.381,0-.748-.015-1.129-.029-8.727-7.26-14.432-15.664-17.028-25.08a66.974,66.974,0,0,0,22.132,3.843,63.533,63.533,0,0,0,13.45-1.452c-2.86,8.448-8.3,16.046-16.295,22.69C360.21,174.352,359.829,174.367,359.447,174.367Zm5.251-.323c7.407-6.791,12.408-14.506,14.975-23.056a74.928,74.928,0,0,0,21.575-9.68A43.081,43.081,0,0,1,364.7,174.044Z" transform="translate(-298.8 -79.635)" fill="#66c0d2"/><path d="M354.253,198.014H340.011a10.3,10.3,0,0,0,0,20.607H387a10.3,10.3,0,1,0,0-20.607H372.762v-2.376a9.085,9.085,0,0,0-.821-3.784,88.66,88.66,0,0,0,16.867-4.165,3.089,3.089,0,0,0-2.024-5.837c-10.311,3.579-19.976,5.045-28.747,4.327-26.488-2.156-48.943-27.456-49.017-55.236a54.453,54.453,0,0,1,1.467-12.966,46.606,46.606,0,0,1,9.064-18.363A45.15,45.15,0,0,1,335.8,86.795a3.093,3.093,0,0,0-2.493-5.661,50.86,50.86,0,0,0-18.554,14.579,52.882,52.882,0,0,0-10.267,20.812,60.539,60.539,0,0,0-1.628,14.432c.088,29.964,23.7,57.318,52.126,61.088a9.066,9.066,0,0,0-.719,3.579v2.391Zm2.479,4.943a2.46,2.46,0,0,0,2.464-2.464v-4.855a4.32,4.32,0,0,1,1.364-3.139c.631.015,1.247.044,1.877.044,1.291,0,2.581-.059,3.9-.132a4.305,4.305,0,0,1,1.481,3.227v4.855a2.46,2.46,0,0,0,2.464,2.464h16.706a5.361,5.361,0,1,1,0,10.721H340a5.361,5.361,0,1,1,0-10.721Z" transform="translate(-302.86 -80.871)" fill="#66c0d2"/></g></g></svg>