<svg xmlns="http://www.w3.org/2000/svg" xmlns:xlink="http://www.w3.org/1999/xlink" width="254" height="251.848" viewBox="0 0 254 251.848"><defs><linearGradient id="a" y1="0.5" x2="1" y2="0.5" gradientUnits="objectBoundingBox"><stop offset="0" stop-color="#565656"/><stop offset="0.191" stop-color="#595959"/><stop offset="0.347" stop-color="#616263"/><stop offset="0.491" stop-color="#707274"/><stop offset="0.627" stop-color="#85898c"/><stop offset="0.758" stop-color="#a1a6ab"/><stop offset="0.883" stop-color="#c1c9d1"/><stop offset="1" stop-color="#e7f1fb"/></linearGradient></defs><g transform="translate(-255.45 -61.27)"><g transform="translate(255.45 61.27)"><g transform="translate(0 8.858)"><path d="M483.765,310.23H277.618a22.17,22.17,0,0,1-22.168-22.168V89.408A22.17,22.17,0,0,1,277.618,67.24H483.78a22.17,22.17,0,0,1,22.168,22.168V288.062A22.193,22.193,0,0,1,483.765,310.23Z" transform="translate(-255.45 -67.24)" fill="url(#a)"/></g><path d="M486.14,300.892H279.978a22.17,22.17,0,0,1-22.168-22.168V83.438A22.17,22.17,0,0,1,279.978,61.27H486.14a22.17,22.17,0,0,1,22.168,22.168V278.723A22.17,22.17,0,0,1,486.14,300.892Z" transform="translate(-254.308 -61.27)" fill="#919191"/><g transform="translate(70.867 198)"><path d="M305.925,196.63v24.928H303.21V196.63Zm-1.1,0h3.25a5.026,5.026,0,0,1,3.057.95,6.038,6.038,0,0,1,2.018,2.671,12.258,12.258,0,0,1,0,8.235,5.978,5.978,0,0,1-2.018,2.686,5.092,5.092,0,0,1-3.057.95h-3.25v-3.71h3.25a2.753,2.753,0,0,0,2.255-1.039,5.813,5.813,0,0,0,0-6.039,2.772,2.772,0,0,0-2.255-1.009h-3.25Z" transform="translate(-303.21 -193.781)" fill="#fff"/><path d="M314.5,218.887H312.04V202.506H314.5Zm2.508-12.939a1.34,1.34,0,0,0-1.766.3,3.135,3.135,0,0,0-.564,1.365,10.31,10.31,0,0,0-.178,2.048l-.831-.742a11.762,11.762,0,0,1,.475-3.472,7,7,0,0,1,1.217-2.4,2.1,2.1,0,0,1,1.558-.89,2.3,2.3,0,0,1,1.083.267,1.993,1.993,0,0,1,.846.95l-1.2,3.235A2.976,2.976,0,0,0,317.011,205.949Z" transform="translate(-298.938 -191.11)" fill="#fff"/><path d="M317.982,206.245a7.4,7.4,0,0,1,2.033-3.012,4.409,4.409,0,0,1,2.923-1.083,4.344,4.344,0,0,1,2.908,1.083,7.446,7.446,0,0,1,2.033,3.012,13.427,13.427,0,0,1,0,8.888,7.5,7.5,0,0,1-2.033,3.027,4.344,4.344,0,0,1-2.908,1.083,4.409,4.409,0,0,1-2.923-1.083,7.218,7.218,0,0,1-2.033-3.027,12.149,12.149,0,0,1-.742-4.437A12.382,12.382,0,0,1,317.982,206.245Zm2.226,7.137a4.451,4.451,0,0,0,1.128,1.81,2.277,2.277,0,0,0,1.617.653,2.388,2.388,0,0,0,1.6-.653,4.417,4.417,0,0,0,1.143-1.81,7.8,7.8,0,0,0,.415-2.686,7.885,7.885,0,0,0-.415-2.7,4.138,4.138,0,0,0-1.143-1.81,2.35,2.35,0,0,0-3.22,0,4.451,4.451,0,0,0-1.128,1.81,8,8,0,0,0-.415,2.7A7.856,7.856,0,0,0,320.208,213.383Z" transform="translate(-296.422 -191.11)" fill="#fff"/><path d="M326.682,209.682a7,7,0,0,1,1.9-2.923,3.787,3.787,0,0,1,2.537-1.009,3.146,3.146,0,0,1,2.344,1.039,7.059,7.059,0,0,1,1.588,2.938,15.818,15.818,0,0,1,.594,4.57,15.354,15.354,0,0,1-.594,4.555,7.124,7.124,0,0,1-1.588,2.953,3.2,3.2,0,0,1-2.344,1.039,3.861,3.861,0,0,1-2.537-1.009,6.967,6.967,0,0,1-1.9-2.938,15.257,15.257,0,0,1,0-9.215Zm2.3,7.419a4.223,4.223,0,0,0,1.157,1.781,2.44,2.44,0,0,0,1.573.608,2.163,2.163,0,0,0,1.41-.608,4.57,4.57,0,0,0,1.157-1.766,9.245,9.245,0,0,0,0-5.668,4.26,4.26,0,0,0-1.157-1.766,2.193,2.193,0,0,0-1.41-.608,2.411,2.411,0,0,0-1.573.608,3.963,3.963,0,0,0-1.157,1.781,9.451,9.451,0,0,0,0,5.639Zm8.265-22.391v27.777h-2.508V194.71Z" transform="translate(-292.198 -194.71)" fill="#fff"/><path d="M338.692,215.062a1.577,1.577,0,0,0,1.469.964,1.888,1.888,0,0,0,1.246-.445,2.988,2.988,0,0,0,.831-1.276,5.945,5.945,0,0,0,.3-1.944V202.39h2.478v16.381h-2.478v-2.522a5.269,5.269,0,0,1-1.306,2.152,2.693,2.693,0,0,1-1.9.727,2.977,2.977,0,0,1-2.73-1.706,9.519,9.519,0,0,1-.95-4.629v-10.4H338.2v9.971A6.054,6.054,0,0,0,338.692,215.062Z" transform="translate(-287.515 -190.994)" fill="#fff"/><path d="M346.5,213.407a4.706,4.706,0,0,0,1.187,1.84,2.467,2.467,0,0,0,1.662.683,3.143,3.143,0,0,0,1.454-.356,3.865,3.865,0,0,0,1.217-.994,4.475,4.475,0,0,0,.786-1.424V217.4a3.885,3.885,0,0,1-1.5,1.35,4.527,4.527,0,0,1-5.015-.579,7.38,7.38,0,0,1-2.048-3.027,12.149,12.149,0,0,1-.742-4.437,12.382,12.382,0,0,1,.742-4.451,7.425,7.425,0,0,1,2.048-3.012,4.419,4.419,0,0,1,2.938-1.083,4.3,4.3,0,0,1,2.077.5,3.993,3.993,0,0,1,1.5,1.35v4.244a3.717,3.717,0,0,0-.8-1.439,4.084,4.084,0,0,0-1.232-.979,3.07,3.07,0,0,0-1.424-.356,2.373,2.373,0,0,0-1.662.683,4.555,4.555,0,0,0-1.187,1.855,7.643,7.643,0,0,0-.43,2.7A7.191,7.191,0,0,0,346.5,213.407Z" transform="translate(-283.717 -191.106)" fill="#fff"/><path d="M356.629,204.248v3.383H350.62v-3.383Zm-1.766-5.7v22.079H352.4V198.55Z" transform="translate(-280.272 -192.852)" fill="#fff"/><path d="M356.225,197.093a1.36,1.36,0,0,1,1.1-.683,1.293,1.293,0,0,1,1.113.683,2.971,2.971,0,0,1,.445,1.677,3.058,3.058,0,0,1-.445,1.662,1.31,1.31,0,0,1-1.113.7,1.344,1.344,0,0,1-1.1-.7,2.885,2.885,0,0,1-.475-1.662A2.98,2.98,0,0,1,356.225,197.093Zm2.315,8.191v16.381h-2.433V205.283Z" transform="translate(-277.79 -193.888)" fill="#fff"/><path d="M361.575,202.39l2.76,10.58,2.76-10.58h2.745l-5.5,17.88-5.475-17.88Z" transform="translate(-276.286 -190.994)" fill="#fff"/><path d="M367.512,206.245a7.4,7.4,0,0,1,2.033-3.012,4.409,4.409,0,0,1,2.923-1.083,4.344,4.344,0,0,1,2.908,1.083,7.446,7.446,0,0,1,2.033,3.012,13.427,13.427,0,0,1,0,8.888,7.5,7.5,0,0,1-2.033,3.027,4.344,4.344,0,0,1-2.908,1.083,4.409,4.409,0,0,1-2.923-1.083,7.219,7.219,0,0,1-2.033-3.027,12.15,12.15,0,0,1-.742-4.437A12.382,12.382,0,0,1,367.512,206.245Zm2.226,7.137a4.452,4.452,0,0,0,1.128,1.81,2.277,2.277,0,0,0,1.617.653,2.388,2.388,0,0,0,1.6-.653,4.416,4.416,0,0,0,1.143-1.81,7.8,7.8,0,0,0,.415-2.686,7.883,7.883,0,0,0-.415-2.7,4.138,4.138,0,0,0-1.143-1.81,2.35,2.35,0,0,0-3.22,0,4.451,4.451,0,0,0-1.128,1.81,8,8,0,0,0-.415,2.7A7.856,7.856,0,0,0,369.738,213.383Z" transform="translate(-272.459 -191.11)" fill="#fff"/></g></g><path d="M438.879,170.1l-5.371-97H420.272l-7.523,96.285h-8.235l-26.13-15.031-.356,14.675-28.994-17.183v17.539l-29.35-17.895.356,17.539-29.35-16.47v83.049H446.031V170.1ZM329.892,216.273H298.035V208.75h31.858Zm0-13.607H298.035v-7.523h31.858Zm36.146,13.607H334.181V208.75h31.858Zm0-13.607H334.181v-7.523h31.858Zm36.146,13.607H370.326V208.75h31.858Zm0-13.607H370.326v-7.523h31.858ZM438.7,216.273H406.843V208.75H438.7Zm0-13.607H406.843v-7.523H438.7Z" transform="translate(17.05 5.724)" fill="#66c0d2"/></g></svg>