<?xml version="1.0" encoding="utf-8"?>
<!-- Generator: Adobe Illustrator 24.1.0, SVG Export Plug-In . SVG Version: 6.00 Build 0)  -->
<svg version="1.1" id="Capa_1" xmlns="http://www.w3.org/2000/svg" xmlns:xlink="http://www.w3.org/1999/xlink" x="0px" y="0px"
	 viewBox="0 0 254 251.8" style="enable-background:new 0 0 254 251.8;" xml:space="preserve">
<style type="text/css">
	.st0{fill:url(#SVGID_1_);}
	.st1{fill:#BFBFBF;}
	.st2{fill:#FFFFFF;}
	.st3{display:none;fill:#FFFFFF;stroke:#FFFFFF;stroke-miterlimit:10;}
	.st4{fill:#66C0D2;}
</style>
<g transform="translate(-255.45 -61.27)">
	<g transform="translate(255.45 61.27)">
		<g transform="translate(0 8.858)">
			
				<linearGradient id="SVGID_1_" gradientUnits="userSpaceOnUse" x1="-177.2894" y1="512.535" x2="-176.2894" y2="512.535" gradientTransform="matrix(250.498 0 0 -242.99 44410.6406 124662.375)">
				<stop  offset="0" style="stop-color:#565656"/>
				<stop  offset="0.191" style="stop-color:#595959"/>
				<stop  offset="0.347" style="stop-color:#616263"/>
				<stop  offset="0.491" style="stop-color:#707274"/>
				<stop  offset="0.627" style="stop-color:#85898C"/>
				<stop  offset="0.758" style="stop-color:#A1A6AB"/>
				<stop  offset="0.883" style="stop-color:#C1C9D1"/>
				<stop  offset="1" style="stop-color:#E7F1FB"/>
			</linearGradient>
			<path class="st0" d="M228.3,243H22.2C9.9,243,0,233.1,0,220.8V22.2C0,9.9,9.9,0,22.2,0h206.2c12.2,0,22.2,9.9,22.2,22.2v198.7
				C250.5,233.1,240.6,243,228.3,243z"/>
		</g>
		<path class="st1" d="M231.8,239.6H25.7c-12.2,0-22.2-9.9-22.2-22.2V22.2C3.5,9.9,13.4,0,25.7,0h206.2C244.1,0,254,9.9,254,22.2
			v195.3C254,229.7,244.1,239.6,231.8,239.6z"/>
		<g transform="translate(90.721 199.662)">
			<path class="st2" d="M8.6,13.1h7.8c0,1.7-0.1,3.5-0.5,5.2c-0.3,1.5-0.8,3-1.5,4.3c-0.6,1.2-1.5,2.2-2.5,3c-1,0.7-2.2,1.1-3.4,1.1
				c-1.2,0-2.4-0.3-3.4-0.9C4,25,3.1,24.1,2.4,23c-0.8-1.3-1.4-2.7-1.8-4.1C0.2,17.2,0,15.4,0,13.6c0-1.8,0.2-3.5,0.6-5.2
				C1,7,1.6,5.6,2.4,4.3c0.7-1.1,1.6-2,2.7-2.7C7,0.5,9.4,0.4,11.4,1.4c0.9,0.5,1.7,1.1,2.3,1.9c0.7,0.9,1.3,1.9,1.7,3l-2.2,2.3
				c-0.4-1.1-1-2.1-1.9-2.8C9.7,4.2,7.2,4.3,5.6,5.7C4.7,6.6,4,7.7,3.6,8.9c-0.5,1.5-0.8,3.1-0.8,4.7c0,1.6,0.2,3.2,0.7,4.7
				c0.4,1.2,1.1,2.3,2,3.2c0.8,0.7,1.8,1.1,2.8,1.1c0.7,0,1.3-0.1,1.9-0.5c0.6-0.3,1.1-0.8,1.5-1.3c0.4-0.6,0.8-1.3,1-2
				c0.3-0.8,0.5-1.5,0.6-2.3H8.6L8.6,13.1L8.6,13.1z"/>
			<path class="st2" d="M19.6,16.2h6.6c0-0.7-0.2-1.4-0.4-2c-0.2-0.5-0.5-1-0.9-1.4c-0.4-0.3-0.9-0.5-1.4-0.5
				c-0.5,0-1.1,0.2-1.5,0.5c-0.5,0.4-0.9,1-1.1,1.6c-0.3,0.8-0.4,1.6-0.4,2.5l0,1c0,1,0.1,2,0.4,3c0.2,0.7,0.5,1.3,1.1,1.8
				c0.4,0.4,1,0.6,1.6,0.6c0.5,0,0.9-0.1,1.3-0.3c0.4-0.2,0.7-0.5,1-0.9c0.3-0.4,0.6-0.9,0.7-1.4l2.1,1.4c-0.3,0.8-0.7,1.6-1.2,2.3
				c-0.9,1.4-2.5,2.2-4.1,2.1c-1.1,0-2.1-0.4-2.8-1.1c-0.9-0.8-1.5-1.9-1.9-3c-0.5-1.4-0.7-2.9-0.7-4.4c0-0.3,0-0.6,0-0.9
				c0-0.3,0-0.6,0.1-0.9c0.1-1.2,0.4-2.4,0.9-3.6c0.4-0.9,1-1.8,1.9-2.4c0.8-0.6,1.7-0.9,2.6-0.9c1,0,2,0.3,2.8,1
				c0.9,0.8,1.5,1.8,1.8,2.9c0.5,1.4,0.7,3,0.6,4.5v0.5c0,0.2,0,0.4,0,0.6h-9.3L19.6,16.2z M23.3,6.9l-1.4-1.2L25.3,0l2.1,1.6
				L23.3,6.9z"/>
			<path class="st2" d="M37.6,13.4c-0.3-0.6-0.9-0.9-1.5-0.9c-0.4,0-0.9,0.2-1.2,0.4c-0.4,0.3-0.7,0.8-0.8,1.3
				c-0.2,0.6-0.3,1.3-0.3,1.9v10h-2.5V9.7h2.5v2.5c0.2-0.8,0.7-1.6,1.3-2.2c0.5-0.5,1.2-0.7,1.9-0.7c1.2,0,2.2,0.6,2.7,1.7
				c0.7,1.4,1,3,1,4.6v10.4h-2.6v-10C38.2,15.2,38,14.3,37.6,13.4z"/>
			<path class="st2" d="M45.6,25.4c-0.9-0.8-1.5-1.8-1.9-3c-0.5-1.4-0.7-3-0.7-4.5c0-1.5,0.2-3.1,0.7-4.5c0.4-1.1,1-2.2,1.9-3
				c0.8-0.7,1.9-1.1,2.9-1.1c1,0,2.1,0.3,2.8,1c0.9,0.8,1.5,1.8,1.8,2.9c0.5,1.5,0.7,3,0.6,4.5c0,0.2,0,0.4,0,0.6s0,0.4,0,0.5h-9.3
				v-2.6h7.2l-0.8,1.6c0-0.1,0.1-0.3,0.1-0.6c0-0.2,0.1-0.4,0.1-0.6c0-0.8-0.1-1.5-0.3-2.3c-0.2-0.6-0.5-1.1-0.9-1.5
				c-0.4-0.3-0.9-0.5-1.4-0.5c-0.6,0-1.2,0.2-1.6,0.6c-0.5,0.5-0.8,1.2-1,1.9c-0.2,1-0.4,2-0.4,3c0,1,0.1,2,0.3,3
				c0.2,0.7,0.5,1.4,1,1.9c0.4,0.4,1,0.7,1.6,0.6c0.6,0,1.3-0.2,1.8-0.6c0.6-0.5,1-1.2,1.3-2l2.1,1.4c-0.4,1.3-1.2,2.4-2.1,3.3
				c-0.9,0.7-2,1.1-3.2,1.1C47.4,26.5,46.4,26.1,45.6,25.4z"/>
			<path class="st2" d="M58.7,26.1h-2.5V9.7h2.5V26.1z M61.2,13.2c-0.6-0.4-1.3-0.2-1.8,0.3c-0.3,0.4-0.5,0.9-0.6,1.4
				c-0.1,0.7-0.2,1.4-0.2,2l-0.8-0.7c0-1.2,0.1-2.3,0.5-3.5c0.2-0.9,0.7-1.7,1.2-2.4c0.4-0.5,0.9-0.8,1.6-0.9c0.4,0,0.7,0.1,1.1,0.3
				c0.4,0.2,0.7,0.5,0.8,0.9l-1.2,3.2C61.7,13.6,61.5,13.4,61.2,13.2L61.2,13.2z"/>
			<path class="st2" d="M64.7,13.5c0.4-1.2,1.1-2.2,2-3c0.8-0.7,1.8-1.1,2.9-1.1c1.1,0,2.1,0.4,2.9,1.1c0.9,0.8,1.6,1.9,2,3
				c1,2.9,1,6,0,8.9c-0.4,1.2-1.1,2.2-2,3c-0.8,0.7-1.8,1.1-2.9,1.1c-1.1,0-2.1-0.4-2.9-1.1c-0.9-0.8-1.6-1.9-2-3
				c-0.5-1.4-0.8-2.9-0.7-4.4C63.9,16.4,64.2,14.9,64.7,13.5z M66.9,20.6c0.2,0.7,0.6,1.3,1.1,1.8c0.4,0.4,1,0.7,1.6,0.7
				c0.6,0,1.2-0.2,1.6-0.7c0.5-0.5,0.9-1.1,1.1-1.8c0.3-0.9,0.4-1.8,0.4-2.7c0-0.9-0.1-1.8-0.4-2.7c-0.2-0.7-0.6-1.3-1.1-1.8
				c-0.9-0.9-2.3-0.9-3.2,0c-0.5,0.5-0.9,1.1-1.1,1.8c-0.3,0.9-0.4,1.8-0.4,2.7C66.5,18.8,66.6,19.7,66.9,20.6L66.9,20.6z"/>
		</g>
	</g>
	<path class="st3" d="M415.8,99c-12.7-1-28.6,5.7-32.4,16.5c-3.8-10.8-23.2-17.4-35.9-16.4c-33.4,2.7-44.7,39.9-30.5,65
		c7.6,13.5,18.6,25.3,30.5,35.8c10,8.9,35.8,27.6,35.9,27.6c0.1,0.1,25.9-18.7,35.9-27.6c11.9-10.6,22.9-22.4,30.5-35.8
		C464,139,449.2,101.7,415.8,99z"/>
	<g>
		<g>
			<path class="st4" d="M391.2,187.5v56.1c0,2.1-1.7,3.8-3.8,3.8h-6.8c-2.4,0-4.3-1.9-4.3-4.3v-55.6H391.2z"/>
		</g>
		<g>
			<path class="st4" d="M412.6,213.2v7.9c0,2.1-1.7,3.8-3.8,3.8H363c-3.6,0-6.6-2.9-6.6-6.6v-3.3c0-2.8,2.3-5.1,5.1-5.1h47.9
				C411.1,210,412.6,211.5,412.6,213.2z"/>
		</g>
		<path class="st4" d="M397.2,148.5h-26.4c-2.1,0-3.7-1.7-3.7-3.7v0c0-2.1,1.7-3.7,3.7-3.7h26.4c2.1,0,3.7,1.7,3.7,3.7l0,0
			C401,146.8,399.3,148.5,397.2,148.5z"/>
		<path class="st4" d="M401,156.5v3.1c0,1.2-1,2.2-2.2,2.2h-29.4c-1.2,0-2.2-1-2.2-2.2v-3.1c0-1.2,1-2.2,2.2-2.2h29.4
			C400,154.3,401,155.3,401,156.5z"/>
		<path class="st4" d="M451.7,106.8l-3-29.8c-0.3-3.3-3.2-5.8-6.5-5.7l-31.5,0.9c-3.3,0.1-5.9,2.9-5.8,6.2l0.1,4.4
			c0.1,2.5,2.1,4.4,4.6,4.4l12.9-0.4l-20.5,25c-5.7-2.6-11.9-4-18.4-4c-11.7,0-22.6,4.5-30.8,12.8c-1.2,1.2-2.3,2.4-3.3,3.7
			c-5.9,7.5-9.3,16.6-9.4,26.3c0,0.2,0,0.5,0,0.7c0,11.6,4.6,22.7,12.8,30.9c6.4,6.5,14.6,10.7,23.4,12.2v13c0,1.5-1.2,2.7-2.7,2.7
			h-14.4c-1.5,0-2.8,1.2-2.8,2.7v9.5c0,1.5,1.2,2.7,2.7,2.7h14.3c1.6,0,2.8,1.3,2.8,2.8v17c0,1.5,1.2,2.7,2.7,2.7h9.7
			c1.4,0,2.6-1.2,2.6-2.6v-17.3c0-1.4,1.2-2.6,2.6-2.6h15.8c1.6,0,2.9-1.3,2.9-2.9v-9.2c0-1.5-1.2-2.8-2.8-2.8h-16
			c-1.4,0-2.6-1.1-2.6-2.6v-13.1c8.8-1.5,16.9-5.7,23.4-12.1c2.5-2.5,4.6-5.2,6.4-8.1c4.2-6.8,6.4-14.6,6.4-22.7c0-0.2,0-0.4,0-0.7
			c-0.2-11.4-4.7-22.1-12.8-30.2c-0.1-0.1-0.1-0.1-0.2-0.2l21.1-25.7l1.4,13.6c0.3,2.8,2.8,4.9,5.7,4.6l4.5-0.5
			C449.9,112.2,452,109.6,451.7,106.8z M383.2,180.1c-15.3-0.3-27.8-12.7-28.1-28c0-0.5,0-1.1,0-1.6c0.2-6.7,2.7-12.8,6.8-17.6
			c5.3-6.3,13.3-10.2,22.2-10.1c15.4,0.2,27.9,12.7,28.3,27.9c0,0.4,0,0.7,0,1.1c-0.1,5-1.4,9.7-3.7,13.7
			C403.7,174.3,394.1,180.3,383.2,180.1z"/>
		<path class="st4" d="M367.1,159.5v-3.1c0-1.2,1-2.2,2.2-2.2h29.4c1.2,0,2.2,1,2.2,2.2v3.1c0,1.2-1,2.2-2.2,2.2h-29.4
			C368.1,161.7,367.1,160.8,367.1,159.5z"/>
		<path class="st4" d="M427.3,151.4c0,8.1-2.2,15.9-6.4,22.7c-1.8,2.9-3.9,5.6-6.4,8.1c-6.4,6.4-14.6,10.6-23.4,12.1v13.1
			c0,1.4,1.1,2.6,2.6,2.6h16c1.5,0,2.8,1.2,2.8,2.8v9.2c0,1.6-1.3,2.9-2.9,2.9h-15.8c-1.4,0-2.6,1.2-2.6,2.6v17.3
			c0,1.4-1.2,2.6-2.6,2.6h-9.7c-1.5,0-2.7-1.2-2.7-2.7v-17c0-1.6-1.3-2.8-2.8-2.8h-14.3c-1.5,0-2.7-1.2-2.7-2.7v-9.5
			c0-1.5,1.2-2.7,2.8-2.7h14.4c1.5,0,2.7-1.2,2.7-2.7v-13c-8.8-1.5-17-5.7-23.4-12.2c-8.2-8.2-12.8-19.4-12.8-30.9
			c0-0.2,0-0.5,0-0.7c4.1,0,9.2-0.1,15-0.1c0,0.5,0,1,0,1.6c0.3,15.3,12.8,27.7,28.1,28c10.9,0.2,20.5-5.7,25.5-14.5
			c2.3-4.1,3.7-8.7,3.7-13.7c0-0.4,0-0.8,0-1.1c5.9,0,11,0.1,14.9,0.1C427.3,151,427.3,151.2,427.3,151.4z"/>
	</g>
</g>
</svg>
